<svg xmlns="http://www.w3.org/2000/svg" width="512" height="512" viewBox="0 0 512 512">
<g>
<path d="M 265.50,0.64 L 268.59,0.69 L 274.35,0.87 L 275.73,0.93 L 278.33,1.05 L 279.59,1.12 L 281.90,1.27 L 283.01,1.34 L 284.98,1.52 L 287.50,1.81 L 293.60,2.68 L 305.57,4.97 L 311.52,6.20 L 323.15,9.21 L 328.93,10.81 L 340.22,14.53 L 345.82,16.48 L 356.73,20.91 L 362.14,23.22 L 372.67,28.35 L 377.88,31.00 L 387.99,36.82 L 393.00,39.82 L 402.68,46.33 L 416.69,56.84 L 421.66,60.84 L 431.06,69.31 L 435.66,73.62 L 444.32,82.66 L 448.56,87.25 L 456.46,96.82 L 460.32,101.66 L 467.46,111.72 L 470.94,116.81 L 477.30,127.30 L 480.38,132.60 L 485.95,143.49 L 488.63,148.98 L 493.40,160.23 L 495.67,165.89 L 499.61,177.44 L 501.48,183.25 L 504.58,195.06 L 506.02,201.00 L 508.27,213.03 L 509.29,219.06 L 510.67,231.27 L 511.26,237.39 L 511.76,249.72 L 511.90,255.89 L 511.52,268.31 L 511.21,274.52 L 509.91,286.98 L 509.15,293.20 L 506.93,305.65 L 502.54,324.27 L 501.07,329.63 L 497.62,340.14 L 495.81,345.36 L 491.69,355.57 L 489.55,360.63 L 484.80,370.51 L 482.35,375.40 L 476.98,384.92 L 474.23,389.63 L 468.28,398.76 L 465.23,403.28 L 458.73,412.00 L 455.40,416.31 L 448.37,424.59 L 444.78,428.68 L 437.24,436.50 L 433.40,440.35 L 425.38,447.69 L 421.31,451.29 L 412.83,458.11 L 408.53,461.45 L 399.63,467.73 L 395.12,470.80 L 385.81,476.51 L 381.11,479.29 L 371.43,484.41 L 366.54,486.89 L 356.51,491.39 L 351.45,493.56 L 341.09,497.41 L 325.22,502.43 L 321.58,503.45 L 314.06,505.25 L 310.27,506.11 L 302.51,507.59 L 298.60,508.29 L 290.67,509.44 L 286.69,509.97 L 278.68,510.78 L 274.66,511.14 L 266.64,511.60 L 262.64,511.79 L 254.69,511.90 L 250.73,511.91 L 242.93,511.66 L 239.06,511.49 L 231.50,510.88 L 227.72,510.52 L 220.04,509.49 L 216.19,508.93 L 208.40,507.50 L 204.50,506.74 L 196.68,504.94 L 192.78,503.99 L 185.01,501.83 L 181.14,500.71 L 173.49,498.22 L 169.69,496.94 L 162.24,494.14 L 158.55,492.70 L 151.37,489.62 L 141.00,484.68 L 137.45,482.88 L 130.53,479.07 L 127.10,477.12 L 120.42,473.03 L 117.11,470.96 L 110.67,466.61 L 107.47,464.40 L 101.28,459.80 L 98.21,457.46 L 92.26,452.62 L 89.32,450.17 L 83.63,445.09 L 80.82,442.53 L 75.38,437.23 L 72.70,434.55 L 67.53,429.05 L 64.97,426.27 L 60.07,420.56 L 57.65,417.68 L 53.01,411.78 L 50.73,408.80 L 46.37,402.72 L 44.22,399.66 L 40.14,393.41 L 38.14,390.26 L 34.34,383.85 L 32.48,380.62 L 28.97,374.06 L 27.25,370.76 L 24.03,364.06 L 22.46,360.69 L 19.54,353.86 L 18.12,350.43 L 15.49,343.47 L 14.22,339.98 L 11.90,332.92 L 10.78,329.38 L 8.78,322.21 L 7.81,318.62 L 6.12,311.37 L 5.31,307.73 L 3.93,300.40 L 3.28,296.73 L 2.22,289.33 L 1.73,285.62 L 1.00,278.16 L 0.68,274.42 L 0.28,266.91 L 0.12,263.15 L 0.05,255.61 L 0.06,251.83 L 0.33,244.25 L 0.50,240.46 L 1.12,232.87 L 1.46,229.07 L 2.42,221.47 L 2.95,217.66 L 4.26,210.06 L 4.95,206.26 L 6.62,198.67 L 7.50,194.88 L 9.52,187.31 L 12.96,176.00 L 14.51,171.31 L 17.92,162.21 L 19.67,157.70 L 23.52,148.95 L 25.50,144.61 L 29.80,136.18 L 32.01,132.00 L 36.77,123.87 L 39.21,119.85 L 44.45,112.00 L 47.14,108.11 L 52.87,100.52 L 55.80,96.76 L 62.04,89.41 L 71.98,78.62 L 74.77,75.76 L 80.31,70.36 L 83.07,67.72 L 88.62,62.73 L 91.40,60.29 L 97.02,55.67 L 99.85,53.40 L 105.60,49.10 L 108.50,46.98 L 114.44,42.96 L 117.45,40.97 L 123.65,37.18 L 126.79,35.31 L 133.30,31.70 L 143.50,26.44 L 146.72,24.86 L 153.16,21.92 L 156.38,20.48 L 162.83,17.84 L 166.06,16.56 L 172.57,14.20 L 175.84,13.05 L 182.45,10.97 L 185.77,9.96 L 192.52,8.13 L 195.92,7.25 L 202.85,5.67 L 206.34,4.92 L 213.49,3.57 L 224.50,1.81 L 225.24,1.71 L 227.02,1.52 L 227.95,1.43 L 230.10,1.27 L 231.22,1.19 L 233.67,1.05 L 234.94,0.98 L 237.65,0.87 L 240.42,0.77 L 246.50,0.64 L 249.60,0.59 L 256.00,0.56 L 259.20,0.56 M 286.23,17.13 L 284.67,17.22 L 284.04,17.41 L 282.86,17.89 L 282.35,18.28 L 281.36,19.19 L 280.86,19.82 L 279.86,21.22 L 279.29,22.12 L 278.09,24.06 L 277.35,25.25 L 275.19,29.02 L 273.77,31.78 L 273.11,33.17 L 271.86,35.94 L 271.34,37.21 L 270.41,39.65 L 270.12,40.63 L 268.91,44.29 L 268.09,46.24 L 267.63,47.05 L 266.67,48.58 L 266.07,49.28 L 264.81,50.65 L 264.01,51.38 L 260.74,53.94 L 259.79,54.53 L 259.41,54.71 L 258.72,55.00 L 258.52,55.00 L 257.79,55.31 L 257.20,55.79 L 256.89,56.15 L 255.60,57.83 L 255.05,58.91 L 253.31,61.77 L 252.02,63.42 L 251.30,64.12 L 249.81,65.43 L 248.99,65.96 L 247.31,66.93 L 246.40,67.29 L 244.52,67.92 L 243.51,68.11 L 241.44,68.41 L 240.34,68.43 L 238.08,68.38 L 236.87,68.23 L 234.42,67.84 L 233.12,67.53 L 229.39,66.51 L 227.13,65.78 L 226.10,65.38 L 224.11,64.57 L 223.21,64.13 L 221.47,63.22 L 220.69,62.73 L 217.79,60.64 L 216.63,59.40 L 214.51,56.79 L 213.69,55.26 L 210.47,50.62 L 209.21,49.24 L 208.55,48.64 L 207.22,47.49 L 206.55,47.03 L 202.43,43.71 L 199.60,40.98 L 198.23,39.45 L 195.54,36.33 L 194.35,34.73 L 192.10,31.53 L 191.22,30.00 L 189.33,26.72 L 188.85,25.91 L 188.69,25.64 L 188.42,25.20 L 188.39,25.15 L 187.64,25.21 L 186.57,25.47 L 185.81,25.69 L 184.15,26.18 L 183.15,26.49 L 181.06,27.16 L 179.92,27.54 L 175.12,29.16 L 172.74,30.02 L 170.38,30.88 L 169.29,31.29 L 167.19,32.10 L 166.29,32.46 L 160.92,34.64 L 167.21,39.56 L 170.75,42.37 L 172.87,44.11 L 173.82,44.92 L 175.64,46.49 L 176.45,47.22 L 177.99,48.64 L 178.66,49.29 L 179.93,50.57 L 180.46,51.16 L 181.47,52.31 L 181.88,52.84 L 183.29,54.86 L 183.65,55.72 L 184.24,57.92 L 184.55,59.99 L 184.66,61.32 L 184.86,64.18 L 184.91,65.90 L 185.00,69.53 L 185.00,71.64 L 185.03,76.89 L 185.11,79.74 L 185.20,80.88 L 185.43,82.97 L 185.62,83.78 L 186.06,85.23 L 186.38,85.76 L 187.11,86.69 L 187.61,87.00 L 188.69,87.52 L 189.39,87.67 L 190.91,87.90 L 191.85,87.95 L 193.87,88.00 L 195.09,88.00 L 198.72,88.12 L 200.90,88.34 L 201.88,88.51 L 203.77,88.92 L 204.62,89.20 L 206.26,89.83 L 207.00,90.22 L 208.43,91.08 L 209.08,91.60 L 210.34,92.71 L 210.92,93.37 L 212.05,94.76 L 212.57,95.57 L 213.60,97.25 L 214.10,98.21 L 214.88,100.39 L 215.31,102.26 L 215.47,103.35 L 215.77,105.60 L 215.86,106.82 L 216.02,109.30 L 216.05,110.57 L 216.02,115.65 L 215.78,117.89 L 215.52,120.04 L 215.32,120.97 L 214.90,122.69 L 214.64,123.33 L 213.86,124.77 L 213.14,125.82 L 212.68,126.39 L 210.59,128.77 L 209.19,130.08 L 206.19,132.78 L 204.39,134.21 L 200.60,137.10 L 198.46,138.57 L 195.53,140.49 L 194.06,141.30 L 193.47,141.51 L 192.38,141.79 L 191.88,141.77 L 190.88,141.63 L 190.33,141.43 L 187.91,140.02 L 186.32,138.63 L 185.79,137.93 L 184.83,136.38 L 184.43,135.39 L 184.35,134.90 L 184.27,133.92 L 184.37,133.42 L 184.65,132.40 L 184.93,131.87 L 185.58,130.79 L 186.05,130.20 L 187.10,129.01 L 187.78,128.36 L 189.25,127.01 L 190.14,126.27 L 192.04,124.73 L 193.16,123.88 L 201.08,117.85 L 200.79,110.67 L 200.50,103.50 L 192.50,102.94 L 188.08,102.45 L 185.42,101.96 L 184.22,101.63 L 181.92,100.91 L 180.90,100.46 L 178.93,99.49 L 178.07,98.90 L 176.42,97.67 L 175.71,96.95 L 174.36,95.45 L 173.79,94.58 L 172.71,92.79 L 172.27,91.77 L 171.44,89.67 L 171.12,88.50 L 170.90,87.46 L 170.75,86.56 L 170.69,86.03 L 170.44,83.67 L 170.33,82.25 L 170.15,79.27 L 170.10,77.68 L 170.01,74.43 L 170.01,72.83 L 170.00,61.16 L 159.00,52.41 L 154.73,48.95 L 152.23,46.86 L 151.23,45.99 L 150.28,45.15 L 149.89,44.79 L 149.15,44.12 L 148.87,43.84 L 148.37,43.35 L 148.22,43.18 L 148.00,42.89 L 148.00,42.83 L 147.84,42.29 L 147.56,42.08 L 147.32,42.05 L 146.80,42.05 L 146.43,42.13 L 145.64,42.34 L 145.14,42.53 L 144.06,42.97 L 143.40,43.27 L 142.02,43.94 L 141.20,44.36 L 139.49,45.26 L 138.51,45.81 L 136.45,46.96 L 135.29,47.63 L 123.69,54.78 L 116.13,59.93 L 112.44,62.68 L 105.15,68.29 L 101.61,71.27 L 94.60,77.33 L 91.23,80.51 L 84.55,86.97 L 81.35,90.35 L 75.04,97.19 L 72.04,100.74 L 66.12,107.93 L 63.33,111.64 L 57.84,119.14 L 55.27,123.00 L 50.35,130.76 L 47.10,136.18 L 45.71,138.64 L 44.37,141.03 L 43.80,142.08 L 42.73,144.10 L 42.33,144.92 L 41.62,146.41 L 41.42,146.92 L 41.14,147.75 L 41.19,147.87 L 41.42,148.16 L 41.72,148.50 L 41.94,148.73 L 43.01,149.80 L 43.76,150.52 L 45.40,152.09 L 46.37,153.00 L 48.40,154.89 L 49.50,155.89 L 53.48,159.59 L 55.64,161.73 L 56.51,162.70 L 58.10,164.60 L 58.72,165.53 L 59.83,167.41 L 60.24,168.41 L 60.96,170.46 L 61.20,171.63 L 61.61,174.08 L 61.73,175.52 L 61.92,178.57 L 61.95,180.39 L 62.00,184.25 L 62.00,186.56 L 62.00,201.81 L 81.75,220.99 L 89.64,228.76 L 92.09,231.23 L 93.24,232.40 L 95.49,234.68 L 96.51,235.74 L 98.47,237.78 L 99.33,238.69 L 100.96,240.42 L 101.62,241.15 L 102.85,242.51 L 103.29,243.03 L 104.06,243.96 L 104.25,244.24 L 106.34,248.70 L 107.07,251.98 L 107.09,253.73 L 106.91,257.27 L 106.48,259.08 L 105.40,262.71 L 104.52,264.50 L 103.17,267.65 L 102.59,269.76 L 102.43,271.17 L 102.28,272.66 L 102.23,273.56 L 102.14,275.48 L 102.11,276.64 L 102.06,279.12 L 102.05,280.62 L 102.03,283.79 L 102.03,285.68 L 102.04,290.22 L 102.06,292.80 L 102.08,293.90 L 102.13,295.96 L 102.16,296.82 L 102.25,298.42 L 102.30,299.07 L 102.43,300.28 L 102.50,300.76 L 102.67,301.64 L 102.77,301.98 L 103.24,303.09 L 103.56,303.41 L 104.33,304.06 L 105.27,304.79 L 105.94,305.29 L 107.39,306.39 L 108.28,307.05 L 110.17,308.46 L 111.26,309.26 L 113.53,310.93 L 114.78,311.85 L 117.36,313.73 L 118.74,314.74 L 124.50,318.91 L 127.60,321.13 L 136.47,327.62 L 139.20,329.65 L 140.46,330.60 L 142.91,332.46 L 144.01,333.31 L 146.13,334.96 L 147.04,335.68 L 148.75,337.05 L 149.43,337.61 L 150.67,338.66 L 151.09,339.05 L 151.80,339.72 L 151.92,339.90 L 153.09,341.78 L 153.75,343.13 L 154.02,343.91 L 154.53,345.54 L 154.73,346.51 L 155.11,348.58 L 155.26,349.83 L 155.52,352.48 L 155.62,354.08 L 155.79,357.46 L 155.84,359.48 L 155.94,363.76 L 155.96,366.28 L 155.98,368.86 L 155.99,370.26 L 155.99,373.13 L 155.99,374.68 L 156.00,398.86 L 162.61,412.32 L 169.22,425.78 L 169.74,439.14 L 170.02,444.43 L 170.26,447.62 L 170.40,448.94 L 170.68,451.38 L 170.82,452.21 L 170.97,452.97 L 171.04,453.23 L 171.18,453.66 L 171.25,453.75 L 172.47,454.32 L 173.90,454.62 L 174.84,454.72 L 176.85,454.91 L 177.98,454.97 L 180.30,455.05 L 181.50,455.05 L 183.89,455.02 L 185.03,454.97 L 187.23,454.83 L 188.17,454.72 L 189.93,454.48 L 190.56,454.31 L 191.62,453.96 L 191.80,453.75 L 192.02,453.12 L 192.17,452.37 L 192.24,451.84 L 192.38,450.68 L 192.45,449.96 L 192.58,448.43 L 192.64,447.54 L 192.76,445.67 L 192.81,444.62 L 192.91,442.46 L 192.96,441.27 L 193.12,436.29 L 193.17,433.50 L 193.28,428.13 L 193.36,425.07 L 193.41,423.76 L 193.51,421.30 L 193.56,420.26 L 193.69,418.31 L 193.77,417.50 L 193.93,415.97 L 194.02,415.35 L 194.23,414.17 L 194.35,413.68 L 194.88,411.98 L 195.24,411.32 L 195.78,410.49 L 196.32,409.78 L 196.67,409.36 L 198.24,407.49 L 199.26,406.36 L 201.43,404.01 L 202.66,402.74 L 205.18,400.18 L 206.49,398.91 L 216.00,389.67 L 216.02,380.09 L 216.11,376.18 L 216.26,373.85 L 216.38,372.80 L 216.66,370.79 L 216.86,369.88 L 217.29,368.13 L 217.57,367.33 L 218.87,364.34 L 219.83,363.03 L 221.95,360.49 L 223.38,359.24 L 225.21,357.85 L 226.43,357.13 L 227.04,356.87 L 229.44,356.07 L 230.56,356.01 L 232.73,356.09 L 233.68,356.42 L 235.47,357.24 L 236.16,357.87 L 237.38,359.26 L 237.73,360.13 L 238.23,361.95 L 238.15,362.96 L 238.01,363.99 L 237.84,364.53 L 237.45,365.60 L 237.15,366.14 L 236.49,367.24 L 236.05,367.79 L 235.10,368.89 L 234.50,369.44 L 231.00,372.64 L 231.00,382.61 L 230.93,386.94 L 230.79,389.41 L 230.65,390.49 L 230.30,392.57 L 230.03,393.52 L 229.40,395.36 L 228.95,396.25 L 227.95,398.03 L 227.29,398.94 L 225.84,400.80 L 224.92,401.82 L 222.95,403.93 L 221.74,405.13 L 219.15,407.64 L 217.60,409.11 L 208.00,418.20 L 208.00,456.61 L 205.11,461.16 L 201.81,465.14 L 199.19,467.18 L 197.63,467.94 L 194.80,469.12 L 192.94,469.62 L 191.78,469.75 L 190.57,469.86 L 189.86,469.89 L 188.36,469.94 L 187.47,469.94 L 185.60,469.94 L 184.49,469.92 L 182.14,469.87 L 180.77,469.83 L 175.84,469.62 L 172.99,469.41 L 171.75,469.26 L 169.39,468.92 L 168.37,468.69 L 166.42,468.20 L 165.56,467.87 L 163.93,467.18 L 163.20,466.75 L 161.80,465.84 L 161.16,465.28 L 159.91,464.11 L 159.31,463.42 L 158.12,461.95 L 157.52,461.10 L 155.82,458.44 L 155.10,456.73 L 154.89,455.56 L 154.69,454.31 L 154.62,453.55 L 154.48,451.90 L 154.43,450.88 L 154.33,448.71 L 154.29,447.37 L 154.20,444.53 L 154.15,442.82 L 153.77,428.76 L 147.38,415.29 L 141.00,401.83 L 141.00,375.84 L 141.00,371.31 L 141.00,368.57 L 140.99,367.33 L 140.99,364.95 L 140.98,363.88 L 140.97,361.82 L 140.96,360.90 L 140.94,359.13 L 140.93,358.35 L 140.90,356.86 L 140.87,356.21 L 140.78,353.83 L 140.71,352.95 L 140.55,351.37 L 140.44,350.81 L 140.20,349.82 L 140.04,349.47 L 139.31,348.39 L 138.75,347.91 L 137.85,347.19 L 136.83,346.42 L 136.14,345.91 L 134.64,344.79 L 133.72,344.12 L 131.80,342.70 L 130.70,341.90 L 128.42,340.23 L 127.17,339.32 L 124.59,337.45 L 123.22,336.46 L 117.53,332.35 L 114.50,330.18 L 105.77,323.78 L 103.08,321.75 L 101.83,320.80 L 99.40,318.93 L 98.31,318.07 L 96.21,316.40 L 95.30,315.66 L 93.59,314.24 L 92.90,313.65 L 91.64,312.54 L 91.21,312.12 L 90.47,311.37 L 90.32,311.15 L 89.33,309.41 L 88.77,308.11 L 88.54,307.36 L 88.10,305.79 L 87.93,304.87 L 87.61,302.93 L 87.49,301.79 L 87.28,299.40 L 87.21,298.00 L 87.10,295.06 L 87.08,293.35 L 87.05,289.77 L 87.07,287.71 L 87.12,283.41 L 87.17,280.96 L 87.29,275.99 L 87.38,273.21 L 87.43,272.04 L 87.53,269.85 L 87.60,268.94 L 87.74,267.23 L 87.83,266.51 L 88.03,265.17 L 88.14,264.60 L 88.40,263.52 L 88.56,263.04 L 89.26,261.23 L 89.76,260.29 L 91.34,256.80 L 91.71,255.76 L 91.82,255.33 L 92.00,254.56 L 92.00,254.32 L 91.56,253.53 L 90.85,252.59 L 90.31,251.94 L 89.10,250.52 L 88.33,249.65 L 86.68,247.81 L 85.71,246.75 L 83.68,244.56 L 82.54,243.35 L 80.18,240.86 L 78.91,239.53 L 76.28,236.81 L 74.89,235.39 L 72.07,232.51 L 70.59,231.03 L 67.46,227.87 L 65.53,225.92 L 64.63,225.01 L 61.24,221.55 L 59.81,220.07 L 57.12,217.26 L 56.01,216.07 L 53.94,213.83 L 53.11,212.88 L 51.58,211.11 L 50.99,210.37 L 49.92,208.98 L 49.53,208.39 L 48.83,207.29 L 48.60,206.81 L 48.21,205.91 L 48.10,205.50 L 47.88,204.42 L 47.74,203.46 L 47.68,202.88 L 47.43,200.29 L 47.33,198.70 L 47.15,195.36 L 47.09,193.54 L 47.01,189.83 L 47.01,187.97 L 47.00,174.44 L 40.94,168.47 L 38.49,166.08 L 37.16,164.87 L 36.61,164.48 L 35.57,163.88 L 35.12,163.84 L 34.25,163.94 L 33.85,164.28 L 33.05,165.18 L 32.64,165.96 L 31.80,167.75 L 31.32,169.02 L 30.83,170.35 L 30.56,171.11 L 30.01,172.70 L 29.71,173.60 L 29.09,175.47 L 28.75,176.51 L 28.04,178.67 L 27.65,179.85 L 24.25,191.20 L 22.18,199.09 L 21.26,203.11 L 19.51,211.17 L 18.78,215.18 L 17.42,223.15 L 16.91,227.00 L 16.62,229.53 L 16.45,231.45 L 16.37,232.50 L 16.09,236.98 L 15.99,239.50 L 15.81,244.73 L 15.76,247.50 L 15.68,253.14 L 15.68,256.00 L 15.71,261.72 L 15.76,264.50 L 15.88,269.97 L 15.99,272.50 L 16.22,277.38 L 16.37,279.50 L 16.53,281.55 L 16.62,282.47 L 16.80,284.24 L 16.91,285.00 L 18.76,296.81 L 20.27,304.60 L 21.16,308.45 L 23.02,316.12 L 24.08,319.91 L 26.29,327.45 L 27.52,331.16 L 30.07,338.56 L 31.47,342.20 L 34.35,349.44 L 35.91,353.00 L 39.12,360.07 L 40.85,363.54 L 44.37,370.43 L 46.25,373.81 L 50.10,380.51 L 52.13,383.78 L 56.28,390.28 L 58.46,393.45 L 62.91,399.74 L 65.24,402.79 L 69.98,408.85 L 72.46,411.79 L 77.49,417.61 L 80.10,420.42 L 85.41,425.99 L 88.17,428.67 L 93.74,433.97 L 96.63,436.52 L 102.48,441.55 L 105.50,443.96 L 116.01,451.80 L 123.41,456.84 L 127.27,459.24 L 135.10,463.95 L 139.14,466.18 L 147.28,470.53 L 151.44,472.55 L 159.81,476.48 L 164.04,478.27 L 172.52,481.74 L 176.77,483.28 L 185.26,486.23 L 189.47,487.50 L 197.87,489.88 L 202.00,490.84 L 205.15,491.53 L 207.56,492.02 L 208.89,492.27 L 214.47,493.30 L 217.48,493.81 L 223.60,494.80 L 226.59,495.24 L 232.45,496.08 L 235.00,496.38 L 236.14,496.50 L 236.88,496.54 L 238.46,496.62 L 239.40,496.65 L 241.38,496.70 L 242.49,496.71 L 244.80,496.73 L 246.05,496.72 L 251.33,496.69 L 254.23,496.64 L 260.15,496.51 L 263.19,496.41 L 269.29,496.20 L 272.23,496.07 L 278.01,495.78 L 280.61,495.63 L 283.16,495.46 L 284.33,495.38 L 286.60,495.20 L 287.61,495.11 L 289.54,494.93 L 290.36,494.84 L 291.90,494.65 L 292.50,494.55 L 302.46,492.75 L 309.05,491.34 L 312.32,490.54 L 318.82,488.88 L 322.04,487.95 L 328.46,486.03 L 331.63,484.97 L 337.95,482.80 L 341.07,481.62 L 347.28,479.21 L 350.34,477.91 L 356.43,475.25 L 359.43,473.83 L 365.39,470.93 L 368.32,469.40 L 374.14,466.27 L 377.00,464.63 L 382.67,461.27 L 385.45,459.52 L 390.97,455.94 L 393.67,454.08 L 399.02,450.29 L 401.63,448.31 L 406.81,444.31 L 409.33,442.24 L 414.32,438.03 L 416.74,435.85 L 421.53,431.44 L 423.85,429.17 L 428.44,424.57 L 430.66,422.19 L 437.82,414.52 L 428.58,405.51 L 422.14,398.79 L 418.30,394.31 L 416.59,392.04 L 413.31,387.47 L 411.87,385.12 L 409.12,380.37 L 407.93,377.91 L 405.66,372.90 L 404.69,370.27 L 402.86,364.92 L 402.09,362.08 L 400.66,356.29 L 400.08,353.20 L 399.00,346.88 L 398.58,343.50 L 397.75,337.13 L 397.24,333.51 L 396.99,331.93 L 396.46,328.92 L 396.17,327.56 L 395.56,324.93 L 395.21,323.67 L 394.45,321.19 L 394.00,319.92 L 393.04,317.35 L 392.45,315.95 L 391.21,313.06 L 390.46,311.42 L 388.88,307.98 L 387.93,305.98 L 385.23,300.11 L 383.69,296.61 L 383.04,295.04 L 381.81,291.98 L 381.31,290.59 L 380.37,287.88 L 380.00,286.62 L 379.31,284.14 L 379.05,282.96 L 378.59,280.63 L 378.44,279.48 L 378.00,274.89 L 378.00,272.40 L 378.67,264.05 L 379.77,258.81 L 380.65,256.35 L 382.62,251.55 L 383.92,249.32 L 386.75,244.97 L 388.47,242.97 L 392.14,239.09 L 394.28,237.33 L 398.77,233.94 L 401.31,232.44 L 406.61,229.55 L 409.56,228.30 L 415.66,225.94 L 419.00,224.95 L 422.49,223.86 L 425.11,222.99 L 426.45,222.51 L 429.14,221.55 L 430.40,221.08 L 432.83,220.16 L 433.84,219.74 L 436.16,218.78 L 437.41,218.24 L 437.91,218.01 L 438.83,217.56 L 439.18,217.36 L 439.81,216.98 L 440.03,216.79 L 440.66,216.07 L 440.71,215.65 L 440.65,214.74 L 440.48,214.12 L 439.53,209.13 L 439.26,205.76 L 439.30,204.10 L 439.49,200.79 L 439.77,199.19 L 440.44,196.06 L 440.94,194.59 L 441.74,191.91 L 442.21,189.97 L 442.40,188.99 L 442.73,187.05 L 442.84,186.17 L 443.00,184.48 L 443.00,183.80 L 442.87,181.11 L 442.61,179.69 L 442.35,179.06 L 441.71,177.83 L 441.20,177.16 L 440.04,175.75 L 439.21,174.86 L 437.20,172.94 L 435.86,171.91 L 435.18,171.52 L 433.80,170.81 L 433.07,170.58 L 431.60,170.20 L 430.82,170.12 L 429.22,170.06 L 428.35,170.14 L 426.57,170.39 L 425.60,170.63 L 423.61,171.19 L 422.51,171.59 L 420.25,172.45 L 419.01,173.00 L 415.28,174.49 L 413.00,175.24 L 411.91,175.49 L 409.77,175.89 L 408.71,175.95 L 406.58,175.99 L 405.47,175.86 L 403.22,175.53 L 402.01,175.21 L 399.51,174.48 L 398.13,173.96 L 395.26,172.83 L 393.63,172.10 L 390.25,170.55 L 388.33,169.61 L 384.77,167.90 L 382.71,166.93 L 381.80,166.53 L 380.05,165.78 L 379.26,165.47 L 377.71,164.89 L 376.98,164.65 L 374.14,163.84 L 372.63,163.56 L 371.09,163.30 L 370.24,163.19 L 368.49,162.97 L 367.50,162.86 L 361.17,162.16 L 357.57,161.74 L 356.03,161.54 L 353.11,161.16 L 351.87,160.97 L 349.52,160.60 L 348.52,160.41 L 346.60,160.02 L 345.77,159.82 L 344.17,159.40 L 343.44,159.17 L 340.68,158.18 L 339.28,157.53 L 334.53,154.91 L 331.66,152.86 L 330.39,151.70 L 327.95,149.33 L 326.91,148.04 L 324.95,145.43 L 324.17,144.05 L 322.75,141.28 L 322.25,139.86 L 321.40,137.01 L 321.21,135.59 L 320.98,132.75 L 321.12,131.37 L 321.57,128.62 L 322.06,127.32 L 322.76,125.80 L 323.46,124.49 L 323.89,123.75 L 325.80,120.61 L 326.81,119.13 L 328.03,117.34 L 328.69,116.31 L 328.95,115.83 L 329.84,113.98 L 330.10,112.84 L 330.34,111.65 L 330.43,110.93 L 330.59,109.41 L 330.65,108.47 L 330.77,106.46 L 330.83,105.24 L 330.94,102.62 L 331.00,101.03 L 331.50,88.28 L 337.16,76.89 L 339.40,72.33 L 340.75,69.52 L 341.32,68.33 L 342.36,66.12 L 342.71,65.33 L 343.03,64.60 L 343.15,64.34 L 343.34,63.87 L 343.37,63.75 L 343.43,62.31 L 343.30,60.70 L 343.17,59.65 L 342.85,57.43 L 342.64,56.18 L 342.17,53.59 L 341.89,52.25 L 340.98,47.42 L 340.57,44.59 L 340.46,43.33 L 340.29,40.87 L 340.30,39.72 L 340.37,37.47 L 340.49,36.36 L 341.14,30.21 L 331.82,27.15 L 323.32,24.49 L 318.13,23.02 L 315.57,22.38 L 310.42,21.16 L 307.65,20.60 L 304.83,20.03 L 303.34,19.75 L 300.28,19.19 L 298.63,18.90 L 293.23,17.95 L 290.35,17.48 L 289.20,17.33 L 287.07,17.12 M 356.02,37.00 L 355.55,37.22 L 355.31,37.59 L 355.23,37.88 L 355.10,38.53 L 355.07,38.96 L 355.04,39.87 L 355.07,40.42 L 355.27,42.86 L 355.53,44.41 L 356.14,47.74 L 356.60,49.69 L 357.44,53.86 L 357.82,56.47 L 357.91,57.71 L 358.02,60.18 L 357.97,61.38 L 357.81,63.78 L 357.62,64.99 L 357.17,67.41 L 356.83,68.66 L 356.08,71.20 L 355.58,72.54 L 354.51,75.26 L 353.85,76.73 L 352.45,79.74 L 351.62,81.38 L 346.00,92.52 L 346.00,102.60 L 345.93,106.80 L 345.80,109.34 L 345.69,110.49 L 345.45,112.73 L 345.27,113.76 L 344.89,115.77 L 344.65,116.70 L 343.51,120.27 L 342.68,121.92 L 340.84,125.18 L 339.61,126.85 L 338.16,128.93 L 337.40,130.16 L 337.11,130.71 L 336.61,131.78 L 336.46,132.27 L 336.22,133.23 L 336.20,133.69 L 336.37,135.46 L 336.84,136.38 L 337.38,137.30 L 337.74,137.80 L 338.53,138.81 L 339.01,139.36 L 342.47,142.44 L 343.80,143.25 L 344.55,143.60 L 346.10,144.28 L 346.98,144.57 L 348.83,145.12 L 349.88,145.36 L 352.07,145.82 L 353.33,146.02 L 355.94,146.40 L 357.43,146.56 L 360.52,146.89 L 362.27,147.03 L 367.49,147.53 L 370.57,147.88 L 371.95,148.08 L 374.63,148.51 L 375.86,148.76 L 378.27,149.29 L 379.43,149.61 L 383.95,151.06 L 386.35,152.10 L 388.80,153.19 L 390.13,153.84 L 392.86,155.20 L 394.39,155.99 L 398.31,157.94 L 400.80,159.08 L 401.88,159.53 L 403.93,160.35 L 404.71,160.60 L 405.43,160.83 L 405.71,160.90 L 406.22,161.00 L 406.38,161.00 L 407.77,160.79 L 409.03,160.45 L 409.78,160.20 L 413.01,159.03 L 414.63,158.29 L 417.94,156.91 L 419.94,156.27 L 420.99,156.08 L 423.15,155.75 L 424.45,155.67 L 427.22,155.55 L 429.00,155.55 L 432.40,155.62 L 434.45,155.76 L 435.38,155.89 L 438.86,156.55 L 440.39,157.15 L 443.35,158.58 L 444.80,159.64 L 446.26,160.77 L 447.01,161.44 L 448.54,162.84 L 449.35,163.65 L 452.24,166.94 L 453.87,169.24 L 454.54,170.44 L 455.77,172.89 L 456.24,174.16 L 457.08,176.76 L 457.36,178.11 L 457.81,180.86 L 457.89,182.30 L 457.95,185.22 L 457.83,186.74 L 457.50,189.82 L 457.19,191.43 L 456.47,194.69 L 455.97,196.39 L 455.23,198.90 L 454.85,200.29 L 454.70,200.89 L 454.25,203.04 L 454.21,203.97 L 454.26,205.81 L 454.45,206.92 L 454.68,208.07 L 454.83,208.74 L 455.16,210.16 L 455.37,211.01 L 455.85,213.07 L 456.10,214.25 L 456.20,214.76 L 456.49,216.61 L 456.51,217.33 L 456.47,218.68 L 456.33,219.31 L 455.96,220.56 L 455.66,221.28 L 454.38,223.69 L 453.28,225.20 L 452.59,225.92 L 451.12,227.33 L 450.23,228.01 L 448.33,229.36 L 447.21,230.02 L 444.83,231.32 L 443.45,231.97 L 440.55,233.27 L 438.89,233.92 L 435.42,235.24 L 433.45,235.91 L 429.35,237.28 L 427.04,237.99 L 421.89,239.64 L 418.85,240.68 L 417.50,241.18 L 414.92,242.18 L 413.78,242.68 L 411.58,243.69 L 410.60,244.20 L 406.96,246.31 L 405.43,247.51 L 402.50,250.05 L 401.09,251.59 L 397.41,256.30 L 395.55,259.50 L 394.90,261.18 L 393.77,264.62 L 393.46,266.48 L 393.00,270.31 L 393.01,272.43 L 393.31,277.99 L 393.57,279.74 L 393.78,280.64 L 394.23,282.47 L 394.55,283.48 L 395.24,285.55 L 395.69,286.72 L 396.67,289.17 L 397.28,290.58 L 398.58,293.54 L 399.36,295.27 L 401.03,298.89 L 402.02,301.00 L 404.70,306.76 L 406.17,310.00 L 406.77,311.41 L 407.89,314.12 L 408.35,315.37 L 409.21,317.81 L 409.56,319.02 L 410.22,321.47 L 410.51,322.78 L 411.06,325.50 L 411.32,327.05 L 411.84,330.31 L 412.11,332.24 L 412.67,336.31 L 413.00,338.74 L 414.49,348.47 L 415.60,354.29 L 416.24,356.92 L 417.57,362.01 L 418.36,364.34 L 420.00,368.86 L 420.96,370.96 L 422.97,375.08 L 424.14,377.03 L 426.61,380.89 L 428.03,382.78 L 431.01,386.55 L 432.72,388.46 L 436.29,392.29 L 438.33,394.29 L 440.49,396.37 L 441.49,397.29 L 443.44,399.01 L 444.26,399.69 L 445.78,400.90 L 446.32,401.25 L 446.81,401.56 L 446.99,401.64 L 447.30,401.75 L 447.38,401.73 L 447.78,401.39 L 448.21,400.92 L 448.50,400.57 L 449.12,399.80 L 449.50,399.32 L 450.28,398.29 L 450.73,397.69 L 452.64,395.08 L 453.73,393.52 L 456.00,390.26 L 457.20,388.48 L 464.03,377.74 L 468.27,370.39 L 470.24,366.64 L 474.08,359.06 L 475.84,355.18 L 479.27,347.37 L 480.83,343.37 L 483.84,335.32 L 485.20,331.20 L 487.81,322.91 L 488.96,318.67 L 491.16,310.13 L 492.11,305.77 L 493.91,296.99 L 494.65,292.50 L 495.11,289.31 L 495.38,286.92 L 495.51,285.62 L 495.95,280.13 L 496.12,277.05 L 496.40,270.70 L 496.48,267.33 L 496.61,260.50 L 496.61,257.03 L 496.57,250.09 L 496.49,246.70 L 496.29,240.01 L 496.13,236.88 L 495.77,230.82 L 495.53,228.14 L 495.28,225.54 L 495.14,224.35 L 494.85,222.05 L 494.68,221.04 L 493.01,211.54 L 491.74,205.34 L 491.03,202.30 L 487.96,190.26 L 486.07,184.34 L 484.11,178.43 L 483.04,175.48 L 480.82,169.57 L 479.61,166.60 L 477.12,160.64 L 475.77,157.63 L 472.99,151.58 L 471.48,148.50 L 463.73,133.93 L 458.10,124.55 L 455.05,120.03 L 448.81,111.11 L 445.47,106.82 L 438.64,98.38 L 435.01,94.34 L 427.61,86.39 L 423.70,82.61 L 415.74,75.17 L 411.56,71.66 L 403.06,64.76 L 398.62,61.51 L 389.60,55.16 L 384.90,52.20 L 381.00,49.82 L 378.13,48.14 L 376.62,47.29 L 370.48,43.87 L 367.58,42.34 L 364.75,40.87 L 363.47,40.22 L 361.01,39.01 L 359.98,38.53 L 358.09,37.67 L 357.41,37.41 L 356.26,37.00 M 165.42,147.90 L 166.50,148.06 L 166.98,148.24 L 167.92,148.69 L 168.33,149.02 L 169.11,149.75 L 169.44,150.22 L 170.42,152.10 L 170.83,153.46 L 170.92,154.17 L 171.00,155.60 L 170.91,156.31 L 170.66,157.72 L 170.40,158.40 L 169.59,159.50 L 168.59,160.49 L 167.92,161.07 L 166.48,162.28 L 165.64,162.93 L 163.91,164.26 L 162.98,164.92 L 159.17,167.57 L 157.42,168.63 L 155.72,169.63 L 154.99,170.01 L 153.61,170.68 L 153.10,170.85 L 152.06,171.10 L 151.08,171.25 L 150.47,171.32 L 149.17,171.46 L 148.41,171.52 L 146.81,171.63 L 145.90,171.68 L 142.04,171.86 L 139.80,171.92 L 135.11,172.00 L 132.55,172.00 L 128.35,172.02 L 125.85,172.05 L 124.74,172.07 L 122.61,172.12 L 121.69,172.16 L 119.93,172.24 L 119.19,172.28 L 117.78,172.39 L 117.21,172.45 L 116.14,172.58 L 115.73,172.66 L 114.99,172.82 L 114.74,172.91 L 114.31,173.09 L 114.20,173.20 L 113.68,174.45 L 113.40,175.94 L 113.30,177.01 L 113.13,179.36 L 113.08,180.85 L 113.00,184.05 L 113.00,185.97 L 113.00,197.53 L 136.50,220.86 L 155.58,221.18 L 158.90,221.24 L 160.92,221.27 L 161.83,221.29 L 165.23,221.37 L 166.60,221.41 L 169.14,221.51 L 170.14,221.57 L 172.00,221.72 L 172.73,221.81 L 174.08,222.03 L 174.63,222.17 L 175.65,222.47 L 176.10,222.67 L 177.78,223.57 L 178.81,224.25 L 182.44,227.33 L 184.29,229.70 L 184.96,231.11 L 186.13,234.10 L 186.49,235.89 L 186.81,237.73 L 186.92,238.73 L 187.10,240.80 L 187.15,241.93 L 187.36,244.89 L 187.58,246.76 L 187.71,247.57 L 188.00,249.09 L 188.15,249.65 L 188.48,250.64 L 188.64,250.86 L 189.85,251.71 L 190.51,251.93 L 190.94,252.02 L 191.88,252.20 L 192.48,252.28 L 193.76,252.43 L 194.55,252.50 L 196.23,252.62 L 197.24,252.68 L 199.38,252.79 L 200.64,252.85 L 203.30,252.95 L 204.85,253.00 L 209.30,253.16 L 211.81,253.27 L 212.85,253.33 L 214.82,253.46 L 215.64,253.53 L 217.16,253.68 L 217.78,253.77 L 218.95,253.96 L 219.43,254.08 L 220.33,254.33 L 220.70,254.47 L 222.06,255.13 L 222.68,255.59 L 225.47,258.14 L 227.13,260.13 L 227.82,261.21 L 229.11,263.42 L 229.57,264.54 L 230.36,266.79 L 230.53,267.86 L 230.90,270.10 L 231.16,271.30 L 231.36,271.78 L 231.82,272.64 L 232.18,272.97 L 233.00,273.57 L 233.61,273.78 L 234.97,274.16 L 235.91,274.30 L 237.98,274.53 L 239.34,274.61 L 242.29,274.76 L 244.15,274.82 L 246.08,274.87 L 247.16,274.90 L 249.38,274.97 L 250.61,275.00 L 254.22,275.11 L 256.42,275.19 L 257.43,275.23 L 261.22,275.41 L 262.79,275.54 L 265.72,275.82 L 266.93,276.00 L 269.17,276.42 L 270.08,276.70 L 271.79,277.30 L 272.50,277.69 L 273.84,278.53 L 274.43,279.06 L 275.55,280.18 L 276.10,280.87 L 277.18,282.33 L 277.75,283.20 L 279.34,285.91 L 279.70,286.84 L 279.84,287.40 L 280.09,288.60 L 280.19,289.35 L 280.36,291.00 L 280.42,292.05 L 280.53,294.33 L 280.57,295.77 L 280.64,298.88 L 280.67,300.80 L 280.70,302.80 L 280.72,303.90 L 280.75,306.17 L 280.76,307.42 L 280.82,311.64 L 280.84,314.19 L 280.84,315.35 L 280.84,317.59 L 280.82,318.60 L 280.78,320.57 L 280.74,321.45 L 280.54,324.76 L 280.33,326.12 L 279.86,328.67 L 279.49,329.75 L 278.65,331.80 L 278.06,332.72 L 276.77,334.52 L 275.93,335.41 L 274.10,337.23 L 272.95,338.23 L 270.49,340.31 L 269.00,341.55 L 266.93,343.22 L 265.93,343.99 L 263.98,345.47 L 263.12,346.09 L 261.49,347.22 L 260.87,347.60 L 259.77,348.24 L 259.50,348.32 L 257.19,348.31 L 255.47,347.77 L 254.65,347.30 L 253.05,346.24 L 252.41,345.58 L 251.26,344.19 L 250.98,343.44 L 250.53,340.65 L 250.67,339.74 L 250.84,339.27 L 251.24,338.32 L 251.54,337.82 L 252.22,336.81 L 252.68,336.27 L 253.66,335.17 L 254.27,334.56 L 255.57,333.33 L 256.34,332.65 L 257.99,331.25 L 258.94,330.48 L 266.00,324.77 L 266.00,308.59 L 265.98,304.64 L 265.95,302.29 L 265.93,301.24 L 265.88,299.23 L 265.84,298.36 L 265.76,296.69 L 265.71,295.99 L 265.61,294.65 L 265.55,294.10 L 265.42,293.08 L 265.34,292.69 L 265.18,291.97 L 265.09,291.72 L 264.90,291.30 L 264.80,291.20 L 264.28,290.91 L 263.72,290.74 L 263.33,290.66 L 262.48,290.52 L 261.94,290.45 L 260.78,290.34 L 260.09,290.29 L 258.62,290.20 L 257.76,290.16 L 255.97,290.09 L 254.94,290.07 L 252.81,290.03 L 251.62,290.02 L 249.14,290.00 L 247.77,290.00 L 243.59,289.98 L 241.12,289.95 L 240.04,289.92 L 237.95,289.86 L 237.04,289.82 L 235.30,289.73 L 234.54,289.67 L 231.80,289.39 L 230.78,289.19 L 228.94,288.75 L 228.23,288.45 L 223.65,285.88 L 221.13,283.73 L 220.13,282.42 L 218.31,279.65 L 217.65,278.03 L 216.49,274.63 L 216.16,272.67 L 215.45,268.50 L 200.98,268.00 L 195.87,267.79 L 192.99,267.62 L 191.76,267.51 L 189.45,267.28 L 188.48,267.14 L 186.63,266.81 L 185.84,266.61 L 184.34,266.16 L 183.67,265.88 L 182.40,265.28 L 181.80,264.91 L 179.52,263.24 L 178.26,262.06 L 175.90,259.31 L 174.73,257.28 L 174.31,256.06 L 173.57,253.45 L 173.32,251.83 L 173.10,250.15 L 173.01,249.20 L 172.85,247.25 L 172.79,246.16 L 172.49,242.41 L 172.24,240.40 L 172.09,239.64 L 171.76,238.27 L 171.56,237.82 L 171.15,237.08 L 170.91,236.92 L 170.26,236.74 L 169.49,236.63 L 168.96,236.58 L 167.79,236.47 L 167.07,236.42 L 165.56,236.33 L 164.69,236.29 L 160.93,236.14 L 158.73,236.09 L 154.16,236.02 L 151.71,236.02 L 146.45,236.00 L 143.49,235.97 L 142.25,235.94 L 139.90,235.88 L 138.93,235.84 L 137.10,235.74 L 136.34,235.67 L 134.93,235.52 L 134.34,235.43 L 133.23,235.22 L 132.75,235.09 L 131.02,234.50 L 130.21,234.08 L 129.20,233.43 L 128.29,232.74 L 127.73,232.29 L 126.56,231.31 L 125.89,230.73 L 124.49,229.51 L 123.73,228.81 L 120.51,225.85 L 118.75,224.16 L 115.16,220.67 L 113.35,218.83 L 109.91,215.31 L 107.90,213.21 L 107.03,212.28 L 105.37,210.49 L 104.67,209.70 L 103.34,208.18 L 102.78,207.51 L 101.74,206.22 L 101.32,205.65 L 100.54,204.55 L 100.24,204.07 L 99.25,202.26 L 99.02,201.50 L 98.54,198.86 L 98.31,196.40 L 98.24,194.85 L 98.12,191.56 L 98.11,189.65 L 98.12,185.65 L 98.17,183.42 L 98.28,178.97 L 98.37,176.52 L 98.41,175.51 L 98.52,173.62 L 98.59,172.84 L 98.74,171.40 L 98.84,170.80 L 99.31,168.71 L 99.69,167.87 L 100.55,166.25 L 101.18,165.29 L 102.97,162.86 L 104.19,161.50 L 104.87,160.94 L 106.28,159.90 L 107.10,159.49 L 108.83,158.72 L 109.87,158.43 L 112.07,157.90 L 113.39,157.72 L 116.21,157.38 L 117.89,157.28 L 121.45,157.10 L 123.57,157.06 L 128.03,157.00 L 130.64,157.00 L 148.65,157.00 L 154.58,152.53 L 157.11,150.76 L 158.72,149.79 L 159.48,149.41 L 160.96,148.72 L 161.65,148.48 L 163.01,148.07 L 163.64,147.97 L 164.86,147.85 M 258.59,15.03 L 257.52,15.06 L 255.26,15.12 L 253.88,15.17 L 250.97,15.29 L 249.25,15.36 L 237.50,16.07 L 229.77,16.75 L 226.13,17.16 L 222.54,17.58 L 220.84,17.81 L 217.50,18.28 L 215.95,18.52 L 212.94,19.02 L 211.57,19.28 L 208.94,19.81 L 207.79,20.07 L 203.09,21.18 L 205.63,25.02 L 207.20,26.98 L 208.69,28.61 L 209.59,29.51 L 213.53,33.25 L 215.56,34.92 L 218.64,37.62 L 220.57,39.48 L 221.41,40.38 L 223.00,42.13 L 223.60,42.90 L 224.68,44.37 L 224.96,44.93 L 226.48,47.64 L 227.43,48.91 L 228.03,49.39 L 229.34,50.28 L 230.30,50.72 L 231.31,51.16 L 231.92,51.40 L 233.21,51.90 L 233.98,52.18 L 235.41,52.71 L 236.02,52.91 L 237.17,53.26 L 237.65,53.37 L 238.56,53.55 L 238.93,53.56 L 239.64,53.54 L 239.94,53.45 L 240.98,52.88 L 241.39,52.25 L 242.14,50.74 L 242.53,49.60 L 243.81,46.51 L 244.76,44.96 L 245.36,44.36 L 246.66,43.26 L 247.52,42.81 L 249.38,41.96 L 250.60,41.54 L 252.67,40.70 L 253.67,40.09 L 254.04,39.68 L 254.71,38.79 L 254.99,38.17 L 255.53,36.80 L 255.81,35.86 L 257.58,30.87 L 259.06,27.28 L 259.84,25.60 L 260.61,23.96 L 260.99,23.22 L 261.72,21.80 L 262.06,21.20 L 262.71,20.10 L 262.99,19.69 L 263.51,18.99 L 263.71,18.83 L 264.62,17.62 L 265.00,16.64 L 265.00,16.22 L 264.48,15.44 L 264.01,15.27 L 263.65,15.20 L 262.85,15.10 L 262.29,15.07 L 261.08,15.02 L 260.29,15.02 Z" fill="rgba(0,0,0,1)"/>
<path d="M 437.74,234.38 L 435.91,235.08 L 432.10,236.50 L 429.97,237.24 L 429.09,237.94 L 428.50,238.78 L 428.21,239.36 L 427.64,240.61 L 427.37,241.36 L 426.85,242.93 L 426.61,243.82 L 425.73,247.56 L 425.45,249.59 L 425.00,253.70 L 425.00,255.66 L 425.37,261.85 L 426.06,265.82 L 426.72,268.02 L 427.44,270.27 L 427.90,271.50 L 428.88,274.05 L 429.47,275.47 L 430.74,278.41 L 431.49,280.08 L 433.07,283.54 L 434.00,285.50 L 436.47,290.85 L 437.91,294.11 L 438.53,295.60 L 439.72,298.50 L 440.22,299.85 L 441.18,302.49 L 441.58,303.73 L 442.98,308.55 L 443.44,310.87 L 444.22,315.52 L 444.44,318.00 L 445.39,326.34 L 446.20,331.63 L 446.70,334.16 L 447.76,339.12 L 448.38,341.48 L 449.69,346.14 L 450.44,348.35 L 452.01,352.71 L 452.89,354.79 L 454.72,358.87 L 455.74,360.82 L 457.84,364.64 L 458.99,366.47 L 461.37,370.06 L 462.66,371.77 L 464.05,373.43 L 464.64,373.93 L 465.21,374.37 L 465.43,374.48 L 465.82,374.61 L 465.84,374.60 L 464.03,377.74 L 457.20,388.48 L 456.00,390.26 L 453.73,393.52 L 452.64,395.08 L 450.73,397.69 L 450.28,398.29 L 449.50,399.32 L 449.12,399.80 L 448.50,400.57 L 448.21,400.92 L 447.78,401.39 L 447.38,401.73 L 447.30,401.75 L 446.99,401.64 L 446.81,401.56 L 446.32,401.25 L 445.78,400.90 L 444.26,399.69 L 443.44,399.01 L 441.49,397.29 L 440.49,396.37 L 438.33,394.29 L 436.29,392.29 L 432.72,388.46 L 431.01,386.55 L 428.03,382.78 L 426.61,380.89 L 424.14,377.03 L 422.97,375.08 L 420.96,370.96 L 420.00,368.86 L 418.36,364.34 L 417.57,362.01 L 416.24,356.92 L 415.60,354.29 L 414.49,348.47 L 413.00,338.74 L 412.67,336.31 L 412.11,332.24 L 411.84,330.31 L 411.32,327.05 L 411.06,325.50 L 410.51,322.78 L 410.22,321.47 L 409.56,319.02 L 409.21,317.81 L 408.35,315.37 L 407.89,314.12 L 406.77,311.41 L 406.17,310.00 L 404.70,306.76 L 402.02,301.00 L 401.03,298.89 L 399.36,295.27 L 398.58,293.54 L 397.28,290.58 L 396.67,289.17 L 395.69,286.72 L 395.24,285.55 L 394.55,283.48 L 394.23,282.47 L 393.78,280.64 L 393.57,279.74 L 393.31,277.99 L 393.01,272.43 L 393.00,270.31 L 393.46,266.48 L 393.77,264.62 L 394.90,261.18 L 395.55,259.50 L 397.41,256.30 L 401.09,251.59 L 402.50,250.05 L 405.43,247.51 L 406.96,246.31 L 410.60,244.20 L 411.58,243.69 L 413.78,242.68 L 414.92,242.18 L 417.50,241.18 L 418.85,240.68 L 421.89,239.64 L 427.04,237.99 L 429.35,237.28 L 433.45,235.91 L 435.42,235.24 L 438.27,234.16 M 475.84,355.18 L 474.08,359.06 L 473.48,360.25 L 476.02,354.78 M 483.84,335.32 L 483.63,335.89 L 484.22,334.16 M 495.95,280.13 L 495.51,285.62 L 495.38,286.92 L 495.11,289.31 L 494.65,292.50 L 493.91,296.99 L 492.11,305.77 L 491.16,310.13 L 488.96,318.67 L 487.81,322.91 L 487.62,323.49 L 487.83,322.81 L 488.86,318.96 L 490.85,311.19 L 491.73,307.26 L 493.40,299.38 L 494.08,295.50 L 495.11,288.47 L 495.68,283.25 L 495.91,280.44 L 496.01,279.00 M 106.74,250.35 L 106.78,250.71 L 106.49,249.38 M 104.81,245.27 L 105.26,246.14 L 106.06,247.85 L 106.28,248.55 L 104.54,244.87 M 87.49,226.63 L 90.49,229.47 L 92.32,231.24 L 93.16,232.06 L 96.33,235.19 L 97.64,236.54 L 100.08,239.12 L 101.06,240.26 L 102.86,242.42 L 103.35,243.10 L 103.29,243.03 L 102.85,242.51 L 101.62,241.15 L 100.96,240.42 L 99.33,238.69 L 98.47,237.78 L 96.51,235.74 L 95.49,234.68 L 93.24,232.40 L 92.09,231.23 L 89.64,228.76 L 86.77,225.94 M 491.03,202.30 L 491.74,205.34 L 493.01,211.54 L 494.68,221.04 L 494.85,222.05 L 495.14,224.35 L 495.28,225.54 L 495.53,228.14 L 495.66,229.61 L 495.59,229.00 L 494.88,223.76 L 494.30,220.02 L 493.98,218.09 L 492.61,210.26 L 491.86,206.54 L 491.11,202.89 L 490.74,201.20 L 490.70,201.00 M 454.19,223.96 L 454.10,224.08 L 454.25,223.87 M 455.12,222.43 L 454.54,223.39 L 455.36,221.83 M 357.41,37.41 L 358.09,37.67 L 359.98,38.53 L 361.01,39.01 L 363.47,40.22 L 364.75,40.87 L 367.58,42.34 L 370.48,43.87 L 376.62,47.29 L 378.13,48.14 L 381.00,49.82 L 384.90,52.20 L 389.60,55.16 L 391.72,56.66 L 390.81,56.09 L 390.38,55.86 L 389.58,55.44 L 389.29,55.34 L 388.78,55.20 L 388.65,55.23 L 388.32,55.49 L 388.02,55.84 L 387.83,56.10 L 386.98,57.33 L 386.44,58.21 L 385.31,60.12 L 384.69,61.25 L 383.40,63.61 L 382.75,64.89 L 378.00,74.22 L 378.00,85.14 L 377.96,89.22 L 377.89,91.55 L 377.81,92.57 L 377.64,94.51 L 377.50,95.38 L 377.19,97.05 L 376.97,97.83 L 375.92,100.83 L 375.05,102.42 L 374.12,104.04 L 373.55,104.94 L 372.35,106.79 L 371.63,107.85 L 369.86,110.78 L 368.98,112.64 L 368.68,113.53 L 368.19,115.29 L 368.09,116.15 L 367.99,117.84 L 368.09,118.67 L 368.39,120.33 L 368.70,121.15 L 369.40,122.79 L 369.91,123.61 L 371.02,125.27 L 371.73,126.12 L 373.25,127.82 L 374.16,128.70 L 378.65,132.20 L 380.30,133.13 L 381.21,133.53 L 383.09,134.31 L 384.14,134.65 L 386.32,135.29 L 387.55,135.57 L 390.12,136.11 L 391.58,136.35 L 394.60,136.81 L 396.32,137.01 L 399.89,137.42 L 401.91,137.61 L 416.50,138.98 L 429.00,144.95 L 434.01,147.31 L 437.10,148.72 L 438.42,149.31 L 440.86,150.38 L 441.74,150.73 L 442.55,151.06 L 442.84,151.17 L 443.36,151.35 L 443.50,151.38 L 445.28,151.63 L 446.32,151.59 L 448.50,151.39 L 449.68,151.14 L 452.11,150.52 L 453.36,150.06 L 455.90,149.06 L 457.16,148.42 L 461.52,146.71 L 462.97,146.31 L 463.62,146.19 L 464.84,146.00 L 465.30,146.00 L 467.87,145.80 L 468.56,145.67 L 468.81,145.59 L 469.24,145.42 L 469.33,145.33 L 469.43,144.78 L 469.38,144.54 L 471.48,148.50 L 472.99,151.58 L 475.77,157.63 L 477.12,160.64 L 479.61,166.60 L 480.82,169.57 L 483.04,175.48 L 484.11,178.43 L 486.07,184.34 L 487.96,190.26 L 488.21,191.26 L 488.05,190.73 L 487.79,190.09 L 487.19,188.79 L 486.87,188.29 L 486.74,188.21 L 486.52,188.16 L 486.45,188.27 L 486.33,188.60 L 486.32,188.88 L 486.31,189.53 L 486.35,189.95 L 486.46,190.86 L 486.56,191.39 L 487.07,193.71 L 487.51,195.03 L 488.38,197.84 L 488.67,199.17 L 488.68,199.67 L 488.59,200.61 L 488.41,201.06 L 487.94,201.96 L 487.57,202.53 L 486.50,203.76 L 485.49,204.63 L 484.85,205.09 L 483.49,206.00 L 482.69,206.47 L 481.01,207.42 L 480.06,207.90 L 475.99,209.82 L 473.60,210.76 L 468.62,212.61 L 465.88,213.47 L 463.10,214.34 L 461.59,214.84 L 460.98,215.06 L 459.85,215.49 L 459.41,215.70 L 458.59,216.10 L 458.28,216.31 L 457.25,217.19 L 456.94,217.77 L 456.39,219.08 L 456.31,219.38 L 456.33,219.31 L 456.47,218.68 L 456.51,217.33 L 456.49,216.61 L 456.20,214.76 L 456.10,214.25 L 455.85,213.07 L 455.37,211.01 L 455.16,210.16 L 454.83,208.74 L 454.68,208.07 L 454.45,206.92 L 454.26,205.81 L 454.21,203.97 L 454.25,203.04 L 454.70,200.89 L 454.85,200.29 L 455.23,198.90 L 455.97,196.39 L 456.47,194.69 L 457.19,191.43 L 457.50,189.82 L 457.83,186.74 L 457.95,185.22 L 457.89,182.30 L 457.81,180.86 L 457.36,178.11 L 457.08,176.76 L 456.24,174.16 L 455.77,172.89 L 454.54,170.44 L 453.87,169.24 L 452.24,166.94 L 449.35,163.65 L 448.54,162.84 L 447.01,161.44 L 446.26,160.77 L 444.80,159.64 L 443.35,158.58 L 440.39,157.15 L 438.86,156.55 L 435.38,155.89 L 434.45,155.76 L 432.40,155.62 L 429.00,155.55 L 427.22,155.55 L 424.45,155.67 L 423.15,155.75 L 420.99,156.08 L 419.94,156.27 L 417.94,156.91 L 414.63,158.29 L 413.01,159.03 L 409.78,160.20 L 409.03,160.45 L 407.77,160.79 L 406.38,161.00 L 406.22,161.00 L 405.71,160.90 L 405.43,160.83 L 404.71,160.60 L 403.93,160.35 L 401.88,159.53 L 400.80,159.08 L 398.31,157.94 L 394.39,155.99 L 392.86,155.20 L 390.13,153.84 L 388.80,153.19 L 386.35,152.10 L 383.95,151.06 L 379.43,149.61 L 378.27,149.29 L 375.86,148.76 L 374.63,148.51 L 371.95,148.08 L 370.57,147.88 L 367.49,147.53 L 362.27,147.03 L 360.52,146.89 L 357.43,146.56 L 355.94,146.40 L 353.33,146.02 L 352.07,145.82 L 349.88,145.36 L 348.83,145.12 L 346.98,144.57 L 346.10,144.28 L 344.55,143.60 L 343.80,143.25 L 342.47,142.44 L 339.01,139.36 L 338.53,138.81 L 337.74,137.80 L 337.38,137.30 L 336.84,136.38 L 336.37,135.46 L 336.20,133.69 L 336.22,133.23 L 336.46,132.27 L 336.61,131.78 L 337.11,130.71 L 337.40,130.16 L 338.16,128.93 L 339.61,126.85 L 340.84,125.18 L 342.68,121.92 L 343.51,120.27 L 344.65,116.70 L 344.89,115.77 L 345.27,113.76 L 345.45,112.73 L 345.69,110.49 L 345.80,109.34 L 345.93,106.80 L 346.00,102.60 L 346.00,92.52 L 351.62,81.38 L 352.45,79.74 L 353.85,76.73 L 354.51,75.26 L 355.58,72.54 L 356.08,71.20 L 356.83,68.66 L 357.17,67.41 L 357.62,64.99 L 357.81,63.78 L 357.97,61.38 L 358.02,60.18 L 357.91,57.71 L 357.82,56.47 L 357.44,53.86 L 356.60,49.69 L 356.14,47.74 L 355.53,44.41 L 355.27,42.86 L 355.07,40.42 L 355.04,39.87 L 355.07,38.96 L 355.10,38.53 L 355.23,37.88 L 355.31,37.59 L 355.55,37.22 L 356.02,37.00 L 356.26,37.00 M 147.32,42.05 L 147.56,42.08 L 147.84,42.29 L 148.00,42.83 L 148.00,42.89 L 148.22,43.18 L 148.37,43.35 L 148.87,43.84 L 149.15,44.12 L 149.89,44.79 L 150.28,45.15 L 151.23,45.99 L 152.23,46.86 L 154.73,48.95 L 159.00,52.41 L 170.00,61.16 L 170.01,72.83 L 170.01,72.88 L 169.90,70.47 L 169.78,68.20 L 169.72,67.26 L 169.59,65.51 L 169.53,64.79 L 169.39,63.48 L 169.31,62.97 L 169.14,62.04 L 169.04,61.69 L 168.84,61.08 L 168.72,60.87 L 168.19,60.27 L 167.84,60.20 L 167.29,60.31 L 166.74,60.55 L 166.39,60.75 L 165.63,61.20 L 165.18,61.49 L 164.23,62.13 L 163.69,62.51 L 161.39,64.21 L 160.06,65.27 L 157.28,67.51 L 155.79,68.79 L 148.16,75.64 L 143.23,80.38 L 140.84,82.83 L 136.10,87.78 L 133.82,90.33 L 129.30,95.49 L 127.12,98.14 L 122.81,103.50 L 120.74,106.25 L 116.66,111.79 L 114.71,114.63 L 110.85,120.35 L 109.01,123.28 L 105.39,129.17 L 103.66,132.17 L 100.28,138.22 L 98.68,141.30 L 95.54,147.50 L 94.06,150.65 L 91.17,156.99 L 89.81,160.21 L 87.18,166.69 L 85.95,169.97 L 83.57,176.56 L 82.48,179.90 L 80.37,186.60 L 79.41,190.00 L 77.57,196.80 L 76.75,200.24 L 75.18,207.14 L 74.50,210.63 L 74.47,212.66 L 74.72,213.36 L 74.96,213.77 L 75.51,214.63 L 75.94,215.16 L 76.90,216.28 L 76.92,216.30 L 62.00,201.81 L 62.00,186.56 L 62.00,184.25 L 61.95,180.39 L 61.92,178.57 L 61.73,175.52 L 61.61,174.08 L 61.20,171.63 L 60.96,170.46 L 60.24,168.41 L 59.83,167.41 L 58.72,165.53 L 58.10,164.60 L 56.51,162.70 L 55.64,161.73 L 53.48,159.59 L 49.50,155.89 L 48.40,154.89 L 46.37,153.00 L 45.40,152.09 L 43.76,150.52 L 43.01,149.80 L 41.94,148.73 L 41.72,148.50 L 41.42,148.16 L 41.19,147.87 L 41.14,147.75 L 41.42,146.92 L 41.62,146.41 L 42.33,144.92 L 42.73,144.10 L 43.80,142.08 L 44.37,141.03 L 45.71,138.64 L 47.10,136.18 L 50.35,130.76 L 55.27,123.00 L 57.84,119.14 L 63.33,111.64 L 66.12,107.93 L 72.04,100.74 L 75.04,97.19 L 81.35,90.35 L 84.55,86.97 L 91.23,80.51 L 94.60,77.33 L 101.61,71.27 L 105.15,68.29 L 112.44,62.68 L 116.13,59.93 L 123.69,54.78 L 135.29,47.63 L 136.45,46.96 L 138.51,45.81 L 139.49,45.26 L 141.20,44.36 L 142.02,43.94 L 143.40,43.27 L 144.06,42.97 L 145.14,42.53 L 145.64,42.34 L 146.43,42.13 L 146.80,42.05 M 458.10,124.55 L 458.15,124.64 L 457.73,124.00 M 448.81,111.11 L 449.17,111.62 L 448.42,110.61 M 192.50,102.94 L 188.43,102.50 L 188.26,102.47 M 186.76,102.21 L 185.96,102.07 L 185.87,102.05 M 182.93,101.23 L 182.66,101.15 L 182.59,101.12 M 179.90,99.97 L 179.78,99.91 L 179.72,99.88 M 398.62,61.51 L 403.06,64.76 L 411.56,71.66 L 415.74,75.17 L 423.70,82.61 L 427.61,86.39 L 435.01,94.34 L 438.64,98.38 L 439.12,98.97 L 436.96,96.53 L 435.35,94.76 L 432.04,91.18 L 430.37,89.43 L 427.05,85.99 L 425.53,84.48 L 420.80,79.98 L 417.22,76.75 L 415.31,75.09 L 407.43,68.42 L 403.65,65.42 L 399.95,62.52 L 398.31,61.30 M 177.50,98.48 L 177.30,98.35 L 177.10,98.18 M 175.58,96.81 L 175.18,96.43 L 174.56,95.70 L 174.45,95.54 M 171.12,88.50 L 171.44,89.67 L 172.27,91.77 L 172.71,92.79 L 173.79,94.58 L 174.27,95.32 L 173.39,94.16 L 172.88,93.29 L 171.91,91.50 L 171.49,90.50 L 171.31,89.81 L 171.19,89.09 L 171.12,88.62 L 171.09,88.37 M 239.94,53.45 L 239.64,53.54 L 238.93,53.56 L 238.56,53.55 L 238.48,53.53 L 238.84,53.55 L 239.59,53.54 L 239.90,53.45 L 240.61,53.08 M 225.25,45.16 L 226.22,46.47 L 226.50,46.94 L 227.70,48.63 L 228.62,49.57 L 229.17,49.98 L 230.25,50.70 L 229.34,50.28 L 228.03,49.39 L 227.43,48.91 L 226.48,47.64 L 224.96,44.93 L 224.74,44.50 M 261.08,15.02 L 261.32,15.03 L 260.24,15.14 L 258.99,15.36 L 258.23,15.52 L 256.61,15.90 L 255.68,16.13 L 253.75,16.64 L 252.69,16.94 L 248.21,18.23 L 245.73,19.01 L 240.65,20.62 L 238.04,21.49 L 232.82,23.27 L 230.32,24.17 L 225.44,25.95 L 223.28,26.79 L 221.18,27.62 L 220.23,28.01 L 218.41,28.78 L 217.62,29.13 L 216.12,29.82 L 215.52,30.12 L 214.42,30.70 L 214.03,30.95 L 213.56,31.67 L 213.70,32.35 L 214.04,32.86 L 214.90,33.99 L 215.64,34.79 L 216.43,35.62 L 216.89,36.09 L 215.56,34.92 L 213.53,33.25 L 209.59,29.51 L 208.69,28.61 L 207.20,26.98 L 205.63,25.02 L 203.09,21.18 L 207.79,20.07 L 208.94,19.81 L 211.57,19.28 L 212.94,19.02 L 215.95,18.52 L 217.50,18.28 L 220.84,17.81 L 222.54,17.58 L 226.13,17.16 L 229.77,16.75 L 237.50,16.07 L 249.25,15.36 L 250.97,15.29 L 253.88,15.17 L 255.26,15.12 L 257.52,15.06 L 258.59,15.03 L 260.29,15.02 M 263.65,15.20 L 264.01,15.27 L 264.48,15.44 L 265.00,16.22 L 265.00,16.33 L 264.91,16.16 L 264.34,15.51 L 263.79,15.31 L 262.98,15.11 Z" fill="rgba(0,185,101,1)"/>
<path d="M 289.20,17.33 L 290.35,17.48 L 293.23,17.95 L 298.63,18.90 L 300.28,19.19 L 303.34,19.75 L 304.83,20.03 L 307.65,20.60 L 310.42,21.16 L 315.57,22.38 L 318.13,23.02 L 323.32,24.49 L 331.82,27.15 L 341.14,30.21 L 340.49,36.36 L 340.37,37.47 L 340.30,39.72 L 340.29,40.87 L 340.46,43.33 L 340.57,44.59 L 340.98,47.42 L 341.89,52.25 L 342.17,53.59 L 342.64,56.18 L 342.85,57.43 L 343.17,59.65 L 343.30,60.70 L 343.43,62.31 L 343.37,63.75 L 343.34,63.87 L 343.15,64.34 L 343.03,64.60 L 342.71,65.33 L 342.36,66.12 L 341.32,68.33 L 340.75,69.52 L 339.40,72.33 L 337.16,76.89 L 331.50,88.28 L 331.00,101.03 L 330.94,102.62 L 330.83,105.24 L 330.77,106.46 L 330.65,108.47 L 330.59,109.41 L 330.43,110.93 L 330.34,111.65 L 330.10,112.84 L 329.84,113.98 L 328.95,115.83 L 328.69,116.31 L 328.03,117.34 L 326.81,119.13 L 325.80,120.61 L 323.89,123.75 L 323.46,124.49 L 322.76,125.80 L 322.06,127.32 L 321.57,128.62 L 321.12,131.37 L 320.98,132.75 L 321.21,135.59 L 321.40,137.01 L 322.25,139.86 L 322.75,141.28 L 324.17,144.05 L 324.95,145.43 L 326.91,148.04 L 327.95,149.33 L 330.39,151.70 L 331.66,152.86 L 334.53,154.91 L 339.28,157.53 L 340.68,158.18 L 343.44,159.17 L 344.17,159.40 L 345.77,159.82 L 346.60,160.02 L 348.52,160.41 L 349.52,160.60 L 351.87,160.97 L 353.11,161.16 L 356.03,161.54 L 357.57,161.74 L 361.17,162.16 L 367.50,162.86 L 368.49,162.97 L 370.24,163.19 L 371.09,163.30 L 372.63,163.56 L 374.14,163.84 L 376.98,164.65 L 377.71,164.89 L 379.26,165.47 L 380.05,165.78 L 381.80,166.53 L 382.71,166.93 L 384.77,167.90 L 388.33,169.61 L 390.25,170.55 L 393.63,172.10 L 395.26,172.83 L 398.13,173.96 L 399.51,174.48 L 402.01,175.21 L 403.22,175.53 L 405.47,175.86 L 406.58,175.99 L 408.71,175.95 L 409.77,175.89 L 411.91,175.49 L 413.00,175.24 L 415.28,174.49 L 419.01,173.00 L 420.25,172.45 L 422.51,171.59 L 423.61,171.19 L 425.60,170.63 L 426.57,170.39 L 428.35,170.14 L 429.22,170.06 L 430.82,170.12 L 431.60,170.20 L 433.07,170.58 L 433.80,170.81 L 435.18,171.52 L 435.86,171.91 L 437.20,172.94 L 439.21,174.86 L 440.04,175.75 L 441.20,177.16 L 441.71,177.83 L 442.35,179.06 L 442.61,179.69 L 442.87,181.11 L 443.00,183.80 L 443.00,184.48 L 442.84,186.17 L 442.73,187.05 L 442.40,188.99 L 442.21,189.97 L 441.74,191.91 L 440.94,194.59 L 440.44,196.06 L 439.77,199.19 L 439.49,200.79 L 439.30,204.10 L 439.26,205.76 L 439.53,209.13 L 440.48,214.12 L 440.65,214.74 L 440.71,215.65 L 440.66,216.07 L 440.03,216.79 L 439.81,216.98 L 439.18,217.36 L 438.83,217.56 L 437.91,218.01 L 437.41,218.24 L 436.16,218.78 L 433.84,219.74 L 432.83,220.16 L 430.40,221.08 L 429.14,221.55 L 426.45,222.51 L 425.11,222.99 L 422.49,223.86 L 419.00,224.95 L 415.66,225.94 L 409.56,228.30 L 406.61,229.55 L 401.31,232.44 L 398.77,233.94 L 394.28,237.33 L 392.14,239.09 L 388.47,242.97 L 386.75,244.97 L 383.92,249.32 L 382.62,251.55 L 380.65,256.35 L 379.77,258.81 L 378.67,264.05 L 378.00,272.40 L 378.00,274.89 L 378.44,279.48 L 378.59,280.63 L 379.05,282.96 L 379.31,284.14 L 380.00,286.62 L 380.37,287.88 L 381.31,290.59 L 381.81,291.98 L 383.04,295.04 L 383.69,296.61 L 385.23,300.11 L 387.93,305.98 L 388.88,307.98 L 390.46,311.42 L 391.21,313.06 L 392.45,315.95 L 393.04,317.35 L 394.00,319.92 L 394.45,321.19 L 395.21,323.67 L 395.56,324.93 L 396.17,327.56 L 396.46,328.92 L 396.99,331.93 L 397.24,333.51 L 397.75,337.13 L 398.58,343.50 L 399.00,346.88 L 400.08,353.20 L 400.66,356.29 L 402.09,362.08 L 402.86,364.92 L 404.69,370.27 L 405.66,372.90 L 407.93,377.91 L 409.12,380.37 L 411.87,385.12 L 413.31,387.47 L 416.59,392.04 L 418.30,394.31 L 422.14,398.79 L 428.58,405.51 L 437.82,414.52 L 430.66,422.19 L 428.44,424.57 L 423.85,429.17 L 421.53,431.44 L 416.74,435.85 L 414.32,438.03 L 409.33,442.24 L 406.81,444.31 L 401.63,448.31 L 399.02,450.29 L 393.67,454.08 L 390.97,455.94 L 385.45,459.52 L 382.67,461.27 L 377.00,464.63 L 374.14,466.27 L 368.32,469.40 L 365.39,470.93 L 359.43,473.83 L 356.43,475.25 L 350.34,477.91 L 347.28,479.21 L 341.07,481.62 L 337.95,482.80 L 331.63,484.97 L 328.46,486.03 L 322.04,487.95 L 318.82,488.88 L 312.32,490.54 L 309.05,491.34 L 302.46,492.75 L 292.50,494.55 L 291.90,494.65 L 290.36,494.84 L 289.54,494.93 L 287.61,495.11 L 286.60,495.20 L 284.33,495.38 L 283.16,495.46 L 280.61,495.63 L 278.01,495.78 L 272.23,496.07 L 269.29,496.20 L 263.19,496.41 L 260.15,496.51 L 254.23,496.64 L 251.33,496.69 L 246.05,496.72 L 244.80,496.73 L 242.49,496.71 L 241.38,496.70 L 239.40,496.65 L 238.46,496.62 L 236.88,496.54 L 236.14,496.50 L 235.00,496.38 L 232.45,496.08 L 226.59,495.24 L 223.60,494.80 L 217.48,493.81 L 214.47,493.30 L 208.89,492.27 L 207.56,492.02 L 205.15,491.53 L 202.00,490.84 L 197.87,489.88 L 189.47,487.50 L 185.26,486.23 L 176.77,483.28 L 172.52,481.74 L 164.04,478.27 L 159.81,476.48 L 151.44,472.55 L 147.28,470.53 L 139.14,466.18 L 135.10,463.95 L 127.27,459.24 L 123.41,456.84 L 116.01,451.80 L 105.50,443.96 L 102.48,441.55 L 96.63,436.52 L 93.74,433.97 L 88.17,428.67 L 85.41,425.99 L 80.10,420.42 L 77.49,417.61 L 72.46,411.79 L 69.98,408.85 L 65.24,402.79 L 62.91,399.74 L 58.46,393.45 L 56.28,390.28 L 52.13,383.78 L 50.10,380.51 L 46.25,373.81 L 44.37,370.43 L 40.85,363.54 L 39.12,360.07 L 35.91,353.00 L 34.35,349.44 L 31.47,342.20 L 30.07,338.56 L 27.52,331.16 L 26.29,327.45 L 24.08,319.91 L 23.02,316.12 L 21.16,308.45 L 20.27,304.60 L 18.76,296.81 L 16.91,285.00 L 16.80,284.24 L 16.62,282.47 L 16.53,281.55 L 16.37,279.50 L 16.22,277.38 L 15.99,272.50 L 15.88,269.97 L 15.76,264.50 L 15.71,261.72 L 15.68,256.00 L 15.68,253.14 L 15.76,247.50 L 15.81,244.73 L 15.99,239.50 L 16.09,236.98 L 16.37,232.50 L 16.45,231.45 L 16.62,229.53 L 16.91,227.00 L 17.42,223.15 L 18.78,215.18 L 19.51,211.17 L 21.26,203.11 L 22.18,199.09 L 24.25,191.20 L 27.65,179.85 L 28.04,178.67 L 28.75,176.51 L 29.09,175.47 L 29.71,173.60 L 30.01,172.70 L 30.56,171.11 L 30.83,170.35 L 31.32,169.02 L 31.80,167.75 L 32.64,165.96 L 33.05,165.18 L 33.85,164.28 L 34.25,163.94 L 35.12,163.84 L 35.57,163.88 L 36.61,164.48 L 37.16,164.87 L 38.49,166.08 L 40.94,168.47 L 47.00,174.44 L 47.01,187.97 L 47.01,189.83 L 47.09,193.54 L 47.15,195.36 L 47.33,198.70 L 47.43,200.29 L 47.68,202.88 L 47.74,203.46 L 47.88,204.42 L 48.10,205.50 L 48.21,205.91 L 48.60,206.81 L 48.83,207.29 L 49.53,208.39 L 49.92,208.98 L 50.99,210.37 L 51.58,211.11 L 53.11,212.88 L 53.94,213.83 L 56.01,216.07 L 57.12,217.26 L 59.81,220.07 L 61.24,221.55 L 64.63,225.01 L 65.53,225.92 L 67.46,227.87 L 70.59,231.03 L 72.07,232.51 L 74.89,235.39 L 76.28,236.81 L 78.91,239.53 L 80.18,240.86 L 82.54,243.35 L 83.68,244.56 L 85.71,246.75 L 86.68,247.81 L 88.33,249.65 L 89.10,250.52 L 90.31,251.94 L 90.85,252.59 L 91.56,253.53 L 92.00,254.32 L 92.00,254.56 L 91.82,255.33 L 91.71,255.76 L 91.34,256.80 L 89.76,260.29 L 89.26,261.23 L 88.56,263.04 L 88.40,263.52 L 88.14,264.60 L 88.03,265.17 L 87.83,266.51 L 87.74,267.23 L 87.60,268.94 L 87.53,269.85 L 87.43,272.04 L 87.38,273.21 L 87.29,275.99 L 87.17,280.96 L 87.12,283.41 L 87.07,287.71 L 87.05,289.77 L 87.08,293.35 L 87.10,295.06 L 87.21,298.00 L 87.28,299.40 L 87.49,301.79 L 87.61,302.93 L 87.93,304.87 L 88.10,305.79 L 88.54,307.36 L 88.77,308.11 L 89.33,309.41 L 90.32,311.15 L 90.47,311.37 L 91.21,312.12 L 91.64,312.54 L 92.90,313.65 L 93.59,314.24 L 95.30,315.66 L 96.21,316.40 L 98.31,318.07 L 99.40,318.93 L 101.83,320.80 L 103.08,321.75 L 105.77,323.78 L 114.50,330.18 L 117.53,332.35 L 123.22,336.46 L 124.59,337.45 L 127.17,339.32 L 128.42,340.23 L 130.70,341.90 L 131.80,342.70 L 133.72,344.12 L 134.64,344.79 L 136.14,345.91 L 136.83,346.42 L 137.85,347.19 L 138.75,347.91 L 139.31,348.39 L 140.04,349.47 L 140.20,349.82 L 140.44,350.81 L 140.55,351.37 L 140.71,352.95 L 140.78,353.83 L 140.87,356.21 L 140.90,356.86 L 140.93,358.35 L 140.94,359.13 L 140.96,360.90 L 140.97,361.82 L 140.98,363.88 L 140.99,364.95 L 140.99,367.33 L 141.00,368.57 L 141.00,371.31 L 141.00,375.84 L 141.00,401.83 L 147.38,415.29 L 153.77,428.76 L 154.15,442.82 L 154.20,444.53 L 154.29,447.37 L 154.33,448.71 L 154.43,450.88 L 154.48,451.90 L 154.62,453.55 L 154.69,454.31 L 154.89,455.56 L 155.10,456.73 L 155.82,458.44 L 157.52,461.10 L 158.12,461.95 L 159.31,463.42 L 159.91,464.11 L 161.16,465.28 L 161.80,465.84 L 163.20,466.75 L 163.93,467.18 L 165.56,467.87 L 166.42,468.20 L 168.37,468.69 L 169.39,468.92 L 171.75,469.26 L 172.99,469.41 L 175.84,469.62 L 180.77,469.83 L 182.14,469.87 L 184.49,469.92 L 185.60,469.94 L 187.47,469.94 L 188.36,469.94 L 189.86,469.89 L 190.57,469.86 L 191.78,469.75 L 192.94,469.62 L 194.80,469.12 L 197.63,467.94 L 199.19,467.18 L 201.81,465.14 L 205.11,461.16 L 208.00,456.61 L 208.00,418.20 L 217.60,409.11 L 219.15,407.64 L 221.74,405.13 L 222.95,403.93 L 224.92,401.82 L 225.84,400.80 L 227.29,398.94 L 227.95,398.03 L 228.95,396.25 L 229.40,395.36 L 230.03,393.52 L 230.30,392.57 L 230.65,390.49 L 230.79,389.41 L 230.93,386.94 L 231.00,382.61 L 231.00,372.64 L 234.50,369.44 L 235.10,368.89 L 236.05,367.79 L 236.49,367.24 L 237.15,366.14 L 237.45,365.60 L 237.84,364.53 L 238.01,363.99 L 238.15,362.96 L 238.23,361.95 L 237.73,360.13 L 237.38,359.26 L 236.16,357.87 L 235.47,357.24 L 233.68,356.42 L 233.24,356.27 L 233.83,356.33 L 234.67,356.56 L 234.99,356.69 L 235.57,356.97 L 235.73,357.13 L 236.65,357.34 L 237.59,357.03 L 238.27,356.63 L 239.78,355.66 L 240.78,354.90 L 241.84,354.10 L 242.43,353.62 L 243.67,352.62 L 244.37,352.04 L 246.65,350.14 L 247.89,349.07 L 248.40,348.62 L 249.32,347.77 L 249.67,347.41 L 250.31,346.73 L 250.54,346.43 L 251.20,345.36 L 251.25,344.89 L 251.18,343.96 L 251.15,343.91 L 251.26,344.19 L 252.41,345.58 L 253.05,346.24 L 254.65,347.30 L 255.47,347.77 L 257.19,348.31 L 259.50,348.32 L 259.77,348.24 L 260.87,347.60 L 261.49,347.22 L 263.12,346.09 L 263.98,345.47 L 265.93,343.99 L 266.93,343.22 L 269.00,341.55 L 270.49,340.31 L 272.95,338.23 L 274.10,337.23 L 275.93,335.41 L 276.77,334.52 L 278.06,332.72 L 278.65,331.80 L 279.49,329.75 L 279.86,328.67 L 280.33,326.12 L 280.54,324.76 L 280.74,321.45 L 280.78,320.57 L 280.82,318.60 L 280.84,317.59 L 280.84,315.35 L 280.84,314.19 L 280.82,311.64 L 280.76,307.42 L 280.75,306.17 L 280.72,303.90 L 280.70,302.80 L 280.67,300.80 L 280.64,298.88 L 280.57,295.77 L 280.53,294.33 L 280.42,292.05 L 280.36,291.00 L 280.19,289.35 L 280.09,288.60 L 279.84,287.40 L 279.70,286.84 L 279.34,285.91 L 277.75,283.20 L 277.18,282.33 L 276.10,280.87 L 275.55,280.18 L 274.43,279.06 L 273.84,278.53 L 272.50,277.69 L 271.79,277.30 L 270.08,276.70 L 269.17,276.42 L 266.93,276.00 L 265.72,275.82 L 262.79,275.54 L 261.22,275.41 L 257.43,275.23 L 256.42,275.19 L 254.22,275.11 L 250.61,275.00 L 249.38,274.97 L 247.16,274.90 L 246.08,274.87 L 244.15,274.82 L 242.29,274.76 L 239.34,274.61 L 237.98,274.53 L 235.91,274.30 L 234.97,274.16 L 233.61,273.78 L 233.00,273.57 L 232.18,272.97 L 231.82,272.64 L 231.36,271.78 L 231.16,271.30 L 230.90,270.10 L 230.53,267.86 L 230.36,266.79 L 229.57,264.54 L 229.11,263.42 L 227.82,261.21 L 227.13,260.13 L 225.47,258.14 L 222.68,255.59 L 222.06,255.13 L 220.70,254.47 L 220.33,254.33 L 219.43,254.08 L 218.95,253.96 L 217.78,253.77 L 217.16,253.68 L 215.64,253.53 L 214.82,253.46 L 212.85,253.33 L 211.81,253.27 L 209.30,253.16 L 204.85,253.00 L 203.30,252.95 L 200.64,252.85 L 199.38,252.79 L 197.24,252.68 L 196.23,252.62 L 194.55,252.50 L 193.76,252.43 L 192.48,252.28 L 191.88,252.20 L 190.94,252.02 L 190.51,251.93 L 189.85,251.71 L 188.64,250.86 L 188.48,250.64 L 188.15,249.65 L 188.00,249.09 L 187.71,247.57 L 187.58,246.76 L 187.36,244.89 L 187.15,241.93 L 187.10,240.80 L 186.92,238.73 L 186.81,237.73 L 186.49,235.89 L 186.13,234.10 L 184.96,231.11 L 184.29,229.70 L 182.44,227.33 L 178.81,224.25 L 177.78,223.57 L 176.10,222.67 L 175.65,222.47 L 174.63,222.17 L 174.08,222.03 L 172.73,221.81 L 172.00,221.72 L 170.14,221.57 L 169.14,221.51 L 166.60,221.41 L 165.23,221.37 L 161.83,221.29 L 160.92,221.27 L 158.90,221.24 L 155.58,221.18 L 136.50,220.86 L 113.00,197.53 L 113.00,185.97 L 113.00,184.05 L 113.08,180.85 L 113.13,179.36 L 113.30,177.01 L 113.40,175.94 L 113.68,174.45 L 114.20,173.20 L 114.31,173.09 L 114.74,172.91 L 114.99,172.82 L 115.73,172.66 L 116.14,172.58 L 117.21,172.45 L 117.78,172.39 L 119.19,172.28 L 119.93,172.24 L 121.69,172.16 L 122.61,172.12 L 124.74,172.07 L 125.85,172.05 L 128.35,172.02 L 132.55,172.00 L 135.11,172.00 L 139.80,171.92 L 142.04,171.86 L 145.90,171.68 L 146.81,171.63 L 148.41,171.52 L 149.17,171.46 L 150.47,171.32 L 151.08,171.25 L 152.06,171.10 L 153.10,170.85 L 153.61,170.68 L 154.99,170.01 L 155.72,169.63 L 157.42,168.63 L 159.17,167.57 L 162.98,164.92 L 163.91,164.26 L 165.64,162.93 L 166.48,162.28 L 167.92,161.07 L 168.59,160.49 L 169.59,159.50 L 170.40,158.40 L 170.66,157.72 L 170.91,156.31 L 171.00,155.60 L 170.92,154.17 L 170.83,153.46 L 170.42,152.10 L 169.44,150.22 L 169.11,149.75 L 168.33,149.02 L 167.92,148.69 L 167.38,148.43 L 167.73,148.53 L 167.99,148.66 L 168.45,148.92 L 168.54,149.07 L 169.45,149.72 L 169.89,149.71 L 170.17,149.64 L 170.77,149.43 L 171.15,149.24 L 171.96,148.81 L 172.45,148.50 L 173.51,147.82 L 174.15,147.38 L 175.50,146.43 L 176.30,145.85 L 178.00,144.61 L 178.98,143.87 L 180.96,142.38 L 182.06,141.52 L 182.51,141.15 L 183.34,140.45 L 183.66,140.14 L 184.26,139.56 L 184.47,139.31 L 185.12,138.39 L 185.18,138.01 L 185.14,137.26 L 184.93,136.87 L 184.40,135.53 L 184.24,134.64 L 184.26,134.19 L 184.28,134.04 L 184.35,134.90 L 184.43,135.39 L 184.83,136.38 L 185.79,137.93 L 186.32,138.63 L 187.91,140.02 L 190.33,141.43 L 190.88,141.63 L 191.88,141.77 L 192.38,141.79 L 193.47,141.51 L 194.06,141.30 L 195.53,140.49 L 198.46,138.57 L 200.60,137.10 L 204.39,134.21 L 206.19,132.78 L 209.19,130.08 L 210.59,128.77 L 212.68,126.39 L 213.14,125.82 L 213.86,124.77 L 214.64,123.33 L 214.90,122.69 L 215.32,120.97 L 215.52,120.04 L 215.78,117.89 L 216.02,115.65 L 216.05,110.57 L 216.02,109.30 L 215.86,106.82 L 215.77,105.60 L 215.47,103.35 L 215.31,102.26 L 214.88,100.39 L 214.10,98.21 L 213.60,97.25 L 212.57,95.57 L 212.05,94.76 L 210.92,93.37 L 210.34,92.71 L 209.08,91.60 L 208.43,91.08 L 207.00,90.22 L 206.26,89.83 L 204.62,89.20 L 203.77,88.92 L 201.88,88.51 L 200.90,88.34 L 198.72,88.12 L 195.09,88.00 L 193.87,88.00 L 191.85,87.95 L 190.91,87.90 L 189.39,87.67 L 188.69,87.52 L 187.61,87.00 L 187.11,86.69 L 186.38,85.76 L 186.06,85.23 L 185.62,83.78 L 185.43,82.97 L 185.20,80.88 L 185.11,79.74 L 185.03,76.89 L 185.00,71.64 L 185.00,69.53 L 184.91,65.90 L 184.86,64.18 L 184.66,61.32 L 184.55,59.99 L 184.24,57.92 L 183.65,55.72 L 183.29,54.86 L 181.88,52.84 L 181.47,52.31 L 180.46,51.16 L 179.93,50.57 L 178.66,49.29 L 177.99,48.64 L 176.45,47.22 L 175.64,46.49 L 173.82,44.92 L 172.87,44.11 L 170.75,42.37 L 167.21,39.56 L 160.92,34.64 L 166.29,32.46 L 167.19,32.10 L 169.29,31.29 L 170.38,30.88 L 172.74,30.02 L 175.12,29.16 L 179.92,27.54 L 181.06,27.16 L 183.15,26.49 L 184.15,26.18 L 185.81,25.69 L 186.57,25.47 L 187.64,25.21 L 188.39,25.15 L 188.42,25.20 L 188.69,25.64 L 188.85,25.91 L 189.33,26.72 L 191.22,30.00 L 192.10,31.53 L 194.35,34.73 L 195.54,36.33 L 198.23,39.45 L 199.60,40.98 L 202.43,43.71 L 206.55,47.03 L 207.22,47.49 L 208.55,48.64 L 209.21,49.24 L 210.47,50.62 L 213.69,55.26 L 214.51,56.79 L 216.63,59.40 L 217.79,60.64 L 220.69,62.73 L 221.47,63.22 L 223.21,64.13 L 224.11,64.57 L 226.10,65.38 L 227.13,65.78 L 229.39,66.51 L 233.12,67.53 L 234.42,67.84 L 236.87,68.23 L 238.08,68.38 L 240.34,68.43 L 241.44,68.41 L 243.51,68.11 L 244.52,67.92 L 246.40,67.29 L 247.31,66.93 L 248.99,65.96 L 249.81,65.43 L 251.30,64.12 L 252.02,63.42 L 253.31,61.77 L 255.05,58.91 L 255.60,57.83 L 256.89,56.15 L 257.20,55.79 L 257.79,55.31 L 258.52,55.00 L 258.72,55.00 L 259.41,54.71 L 259.79,54.53 L 260.74,53.94 L 264.01,51.38 L 264.81,50.65 L 266.07,49.28 L 266.67,48.58 L 267.63,47.05 L 268.09,46.24 L 268.91,44.29 L 270.12,40.63 L 270.41,39.65 L 271.34,37.21 L 271.86,35.94 L 273.11,33.17 L 273.77,31.78 L 275.19,29.02 L 277.35,25.25 L 278.09,24.06 L 279.29,22.12 L 279.86,21.22 L 280.86,19.82 L 281.36,19.19 L 282.35,18.28 L 282.86,17.89 L 284.04,17.41 L 284.67,17.22 L 286.23,17.13 L 287.07,17.12 M 231.08,356.03 L 230.56,356.01 L 229.72,356.05 L 230.13,356.00 L 230.83,356.00 M 250.98,343.44 L 250.97,343.41 L 250.55,340.77 M 250.84,339.27 L 250.67,339.74 L 250.53,340.65 L 250.53,340.64 L 250.67,339.73 L 250.84,339.26 L 251.10,338.65 M 251.24,338.31 L 251.24,338.31 L 251.40,338.05 M 123.57,157.06 L 128.03,157.00 L 130.64,157.00 L 139.65,157.00 L 128.03,157.00 M 161.65,148.48 L 160.96,148.72 L 159.48,149.41 L 158.72,149.79 L 157.11,150.76 L 154.58,152.53 L 157.58,150.40 L 159.27,149.36 L 160.02,149.01 L 161.46,148.42 L 162.14,148.26 L 162.69,148.17 M 184.37,133.42 L 184.35,133.50 L 184.38,133.28 L 184.49,132.97 M 226.50,356.96 L 227.09,356.71 L 228.25,356.28 L 228.87,356.17 L 229.33,356.10 L 227.04,356.87 L 226.43,357.13 L 225.21,357.85 L 223.38,359.24 L 225.31,357.71 Z" fill="rgba(29,164,253,1)"/>
<path d="M 171.25,453.75 L 171.18,453.66 L 171.04,453.23 L 170.97,452.97 L 170.82,452.21 L 170.68,451.38 L 170.40,448.94 L 170.26,447.62 L 170.02,444.43 L 169.74,439.14 L 169.22,425.78 L 162.61,412.32 L 156.00,398.86 L 155.99,374.68 L 155.99,373.13 L 155.99,370.26 L 155.98,368.86 L 155.96,366.28 L 155.94,363.76 L 155.84,359.48 L 155.79,357.46 L 155.62,354.08 L 155.52,352.48 L 155.26,349.83 L 155.11,348.58 L 154.73,346.51 L 154.53,345.54 L 154.02,343.91 L 153.75,343.13 L 153.09,341.78 L 151.92,339.90 L 151.80,339.72 L 151.09,339.05 L 150.67,338.66 L 149.43,337.61 L 148.75,337.05 L 147.04,335.68 L 146.13,334.96 L 144.01,333.31 L 142.91,332.46 L 140.46,330.60 L 139.20,329.65 L 136.47,327.62 L 127.60,321.13 L 124.50,318.91 L 118.74,314.74 L 117.36,313.73 L 114.78,311.85 L 113.53,310.93 L 111.26,309.26 L 110.17,308.46 L 108.28,307.05 L 107.39,306.39 L 105.94,305.29 L 105.27,304.79 L 104.33,304.06 L 103.56,303.41 L 103.24,303.09 L 102.77,301.98 L 102.67,301.64 L 102.50,300.76 L 102.43,300.28 L 102.30,299.07 L 102.25,298.42 L 102.16,296.82 L 102.13,295.96 L 102.08,293.90 L 102.06,292.80 L 102.04,290.22 L 102.03,285.68 L 102.03,283.79 L 102.05,280.62 L 102.06,279.12 L 102.11,276.64 L 102.14,275.48 L 102.23,273.56 L 102.28,272.66 L 102.43,271.17 L 102.59,269.76 L 103.17,267.65 L 104.52,264.50 L 105.38,262.76 L 106.40,259.36 L 106.99,253.92 L 106.99,252.97 L 106.85,251.22 L 106.74,250.35 L 106.32,248.68 L 106.06,247.85 L 105.26,246.14 L 104.81,245.27 L 103.56,243.39 L 102.86,242.42 L 101.06,240.26 L 100.08,239.12 L 97.64,236.54 L 96.33,235.19 L 93.16,232.06 L 92.32,231.24 L 90.49,229.47 L 87.49,226.63 L 85.88,225.10 L 83.20,222.55 L 81.95,221.35 L 79.94,219.39 L 79.00,218.47 L 77.56,216.98 L 76.90,216.28 L 75.94,215.16 L 75.51,214.63 L 74.96,213.77 L 74.72,213.36 L 74.47,212.66 L 74.50,210.63 L 75.18,207.14 L 76.75,200.24 L 77.57,196.80 L 79.41,190.00 L 80.37,186.60 L 82.48,179.90 L 83.57,176.56 L 85.95,169.97 L 87.18,166.69 L 89.81,160.21 L 91.17,156.99 L 94.06,150.65 L 95.54,147.50 L 98.68,141.30 L 100.28,138.22 L 103.66,132.17 L 105.39,129.17 L 109.01,123.28 L 110.85,120.35 L 114.71,114.63 L 116.66,111.79 L 120.74,106.25 L 122.81,103.50 L 127.12,98.14 L 129.30,95.49 L 133.82,90.33 L 136.10,87.78 L 140.84,82.83 L 143.23,80.38 L 148.16,75.64 L 155.79,68.79 L 157.28,67.51 L 160.06,65.27 L 161.39,64.21 L 163.69,62.51 L 164.23,62.13 L 165.18,61.49 L 165.63,61.20 L 166.39,60.75 L 166.74,60.55 L 167.29,60.31 L 167.84,60.20 L 168.19,60.27 L 168.72,60.87 L 168.84,61.08 L 169.04,61.69 L 169.14,62.04 L 169.31,62.97 L 169.39,63.48 L 169.53,64.79 L 169.59,65.51 L 169.72,67.26 L 169.78,68.20 L 169.90,70.47 L 170.08,74.51 L 170.16,76.43 L 170.37,80.10 L 170.48,81.87 L 170.73,84.98 L 170.86,86.43 L 171.12,88.62 L 171.19,89.09 L 171.31,89.81 L 171.49,90.50 L 171.91,91.50 L 172.88,93.29 L 173.39,94.16 L 174.56,95.70 L 175.18,96.43 L 176.57,97.73 L 177.30,98.35 L 178.93,99.41 L 179.78,99.91 L 181.68,100.76 L 182.66,101.15 L 184.84,101.78 L 185.96,102.07 L 188.43,102.50 L 192.50,102.94 L 200.50,103.50 L 200.79,110.67 L 201.08,117.85 L 193.16,123.88 L 192.15,124.65 L 190.40,126.06 L 189.57,126.75 L 188.18,128.01 L 187.53,128.62 L 186.48,129.76 L 186.00,130.31 L 185.28,131.34 L 184.96,131.85 L 184.55,132.81 L 184.38,133.28 L 184.26,134.19 L 184.24,134.64 L 184.40,135.53 L 184.93,136.87 L 185.14,137.26 L 185.18,138.01 L 185.12,138.39 L 184.47,139.31 L 184.26,139.56 L 183.66,140.14 L 183.34,140.45 L 182.51,141.15 L 182.06,141.52 L 180.96,142.38 L 178.98,143.87 L 178.00,144.61 L 176.30,145.85 L 175.50,146.43 L 174.15,147.38 L 173.51,147.82 L 172.45,148.50 L 171.96,148.81 L 171.15,149.24 L 170.77,149.43 L 170.17,149.64 L 169.89,149.71 L 169.45,149.72 L 168.54,149.07 L 168.45,148.92 L 167.99,148.66 L 167.73,148.53 L 166.99,148.32 L 164.19,148.03 L 163.49,148.03 L 162.14,148.26 L 161.46,148.42 L 160.02,149.01 L 159.27,149.36 L 157.58,150.40 L 154.58,152.53 L 148.65,157.00 L 130.64,157.00 L 128.03,157.00 L 123.57,157.06 L 121.45,157.10 L 117.89,157.28 L 116.21,157.38 L 113.39,157.72 L 112.07,157.90 L 109.87,158.43 L 108.83,158.72 L 107.10,159.49 L 106.28,159.90 L 104.87,160.94 L 104.19,161.50 L 102.97,162.86 L 101.18,165.29 L 100.55,166.25 L 99.69,167.87 L 99.31,168.71 L 98.84,170.80 L 98.74,171.40 L 98.59,172.84 L 98.52,173.62 L 98.41,175.51 L 98.37,176.52 L 98.28,178.97 L 98.17,183.42 L 98.12,185.65 L 98.11,189.65 L 98.12,191.56 L 98.24,194.85 L 98.31,196.40 L 98.54,198.86 L 99.02,201.50 L 99.25,202.26 L 100.24,204.07 L 100.54,204.55 L 101.32,205.65 L 101.74,206.22 L 102.78,207.51 L 103.34,208.18 L 104.67,209.70 L 105.37,210.49 L 107.03,212.28 L 107.90,213.21 L 109.91,215.31 L 113.35,218.83 L 115.16,220.67 L 118.75,224.16 L 120.51,225.85 L 123.73,228.81 L 124.49,229.51 L 125.89,230.73 L 126.56,231.31 L 127.73,232.29 L 128.29,232.74 L 129.20,233.43 L 130.21,234.08 L 131.02,234.50 L 132.75,235.09 L 133.23,235.22 L 134.34,235.43 L 134.93,235.52 L 136.34,235.67 L 137.10,235.74 L 138.93,235.84 L 139.90,235.88 L 142.25,235.94 L 143.49,235.97 L 146.45,236.00 L 151.71,236.02 L 154.16,236.02 L 158.73,236.09 L 160.93,236.14 L 164.69,236.29 L 165.56,236.33 L 167.07,236.42 L 167.79,236.47 L 168.96,236.58 L 169.49,236.63 L 170.26,236.74 L 170.91,236.92 L 171.15,237.08 L 171.56,237.82 L 171.76,238.27 L 172.09,239.64 L 172.24,240.40 L 172.49,242.41 L 172.79,246.16 L 172.85,247.25 L 173.01,249.20 L 173.10,250.15 L 173.32,251.83 L 173.57,253.45 L 174.31,256.06 L 174.73,257.28 L 175.90,259.31 L 178.26,262.06 L 179.52,263.24 L 181.80,264.91 L 182.40,265.28 L 183.67,265.88 L 184.34,266.16 L 185.84,266.61 L 186.63,266.81 L 188.48,267.14 L 189.45,267.28 L 191.76,267.51 L 192.99,267.62 L 195.87,267.79 L 200.98,268.00 L 215.45,268.50 L 216.16,272.67 L 216.49,274.63 L 217.65,278.03 L 218.31,279.65 L 220.13,282.42 L 221.13,283.73 L 223.65,285.88 L 228.23,288.45 L 228.94,288.75 L 230.78,289.19 L 231.80,289.39 L 234.54,289.67 L 235.30,289.73 L 237.04,289.82 L 237.95,289.86 L 240.04,289.92 L 241.12,289.95 L 243.59,289.98 L 247.77,290.00 L 249.14,290.00 L 251.62,290.02 L 252.81,290.03 L 254.94,290.07 L 255.97,290.09 L 257.76,290.16 L 258.62,290.20 L 260.09,290.29 L 260.78,290.34 L 261.94,290.45 L 262.48,290.52 L 263.33,290.66 L 263.72,290.74 L 264.28,290.91 L 264.80,291.20 L 264.90,291.30 L 265.09,291.72 L 265.18,291.97 L 265.34,292.69 L 265.42,293.08 L 265.55,294.10 L 265.61,294.65 L 265.71,295.99 L 265.76,296.69 L 265.84,298.36 L 265.88,299.23 L 265.93,301.24 L 265.95,302.29 L 265.98,304.64 L 266.00,308.59 L 266.00,324.77 L 258.94,330.48 L 257.99,331.25 L 256.35,332.64 L 255.57,333.32 L 254.27,334.56 L 253.66,335.16 L 252.68,336.27 L 252.23,336.81 L 251.55,337.82 L 251.24,338.31 L 250.84,339.26 L 250.67,339.73 L 250.53,340.64 L 250.97,343.41 L 251.18,343.96 L 251.25,344.89 L 251.20,345.36 L 250.54,346.43 L 250.31,346.73 L 249.67,347.41 L 249.32,347.77 L 248.40,348.62 L 247.89,349.07 L 246.65,350.14 L 244.37,352.04 L 243.67,352.62 L 242.43,353.62 L 241.84,354.10 L 240.78,354.90 L 239.78,355.66 L 238.27,356.63 L 237.59,357.03 L 236.65,357.34 L 235.73,357.13 L 235.57,356.97 L 234.99,356.69 L 234.67,356.56 L 233.83,356.33 L 230.83,356.00 L 230.13,356.00 L 228.87,356.17 L 228.25,356.28 L 227.09,356.71 L 226.50,356.96 L 225.31,357.71 L 223.38,359.24 L 221.95,360.49 L 219.83,363.03 L 218.87,364.34 L 217.57,367.33 L 217.29,368.13 L 216.86,369.88 L 216.66,370.79 L 216.38,372.80 L 216.26,373.85 L 216.11,376.18 L 216.02,380.09 L 216.00,389.67 L 206.49,398.91 L 205.18,400.18 L 202.66,402.74 L 201.43,404.01 L 199.26,406.36 L 198.24,407.49 L 196.67,409.36 L 196.32,409.78 L 195.78,410.49 L 195.24,411.32 L 194.88,411.98 L 194.35,413.68 L 194.23,414.17 L 194.02,415.35 L 193.93,415.97 L 193.77,417.50 L 193.69,418.31 L 193.56,420.26 L 193.51,421.30 L 193.41,423.76 L 193.36,425.07 L 193.28,428.13 L 193.17,433.50 L 193.12,436.29 L 192.96,441.27 L 192.91,442.46 L 192.81,444.62 L 192.76,445.67 L 192.64,447.54 L 192.58,448.43 L 192.45,449.96 L 192.38,450.68 L 192.24,451.84 L 192.17,452.37 L 192.02,453.12 L 191.80,453.75 L 191.62,453.96 L 190.56,454.31 L 189.93,454.48 L 188.17,454.72 L 187.23,454.83 L 185.03,454.97 L 183.89,455.02 L 181.50,455.05 L 180.30,455.05 L 177.98,454.97 L 176.85,454.91 L 174.84,454.72 L 173.90,454.62 L 172.47,454.32 L 171.85,454.16 M 462.66,371.77 L 461.37,370.06 L 458.99,366.47 L 457.84,364.64 L 455.74,360.82 L 454.72,358.87 L 452.89,354.79 L 452.01,352.71 L 450.44,348.35 L 449.69,346.14 L 448.38,341.48 L 447.76,339.12 L 446.70,334.16 L 446.20,331.63 L 445.39,326.34 L 444.44,318.00 L 444.22,315.52 L 443.44,310.87 L 442.98,308.55 L 441.58,303.73 L 441.18,302.49 L 440.22,299.85 L 439.72,298.50 L 438.53,295.60 L 437.91,294.11 L 436.47,290.85 L 434.00,285.50 L 433.07,283.54 L 431.49,280.08 L 430.74,278.41 L 429.47,275.47 L 428.88,274.05 L 427.90,271.50 L 427.44,270.27 L 426.72,268.02 L 426.06,265.82 L 425.37,261.85 L 425.00,255.66 L 425.00,253.70 L 425.45,249.59 L 425.73,247.56 L 426.61,243.82 L 426.85,242.93 L 427.37,241.36 L 427.64,240.61 L 428.21,239.36 L 428.50,238.78 L 429.09,237.94 L 429.97,237.24 L 432.10,236.50 L 435.91,235.08 L 437.74,234.38 L 440.98,233.00 L 442.52,232.32 L 445.22,230.96 L 446.50,230.29 L 448.69,228.92 L 449.73,228.24 L 451.46,226.85 L 452.28,226.15 L 453.59,224.70 L 454.19,223.96 L 455.12,222.43 L 456.11,220.02 L 456.39,219.08 L 456.94,217.77 L 457.25,217.19 L 458.28,216.31 L 458.59,216.10 L 459.41,215.70 L 459.85,215.49 L 460.98,215.06 L 461.59,214.84 L 463.10,214.34 L 465.88,213.47 L 468.62,212.61 L 473.60,210.76 L 475.99,209.82 L 480.06,207.90 L 481.01,207.42 L 482.69,206.47 L 483.49,206.00 L 484.85,205.09 L 485.49,204.63 L 486.50,203.76 L 487.57,202.53 L 487.94,201.96 L 488.41,201.06 L 488.59,200.61 L 488.68,199.67 L 488.67,199.17 L 488.38,197.84 L 487.51,195.03 L 487.07,193.71 L 486.56,191.39 L 486.46,190.86 L 486.35,189.95 L 486.31,189.53 L 486.32,188.88 L 486.33,188.60 L 486.45,188.27 L 486.52,188.16 L 486.74,188.21 L 486.87,188.29 L 487.19,188.79 L 487.79,190.09 L 488.05,190.73 L 488.66,192.70 L 488.97,193.79 L 489.66,196.50 L 490.01,197.93 L 490.74,201.20 L 491.11,202.89 L 491.86,206.54 L 492.61,210.26 L 493.98,218.09 L 494.30,220.02 L 494.88,223.76 L 495.59,229.00 L 495.87,231.28 L 496.29,236.38 L 496.47,239.01 L 496.72,244.66 L 496.82,247.54 L 496.89,253.52 L 496.90,256.54 L 496.80,262.65 L 496.74,265.70 L 496.48,271.73 L 496.33,274.71 L 495.91,280.44 L 495.68,283.25 L 495.11,288.47 L 494.08,295.50 L 493.40,299.38 L 491.73,307.26 L 490.85,311.19 L 488.86,318.96 L 487.83,322.81 L 485.58,330.22 L 482.00,340.63 L 481.50,341.95 L 480.22,345.09 L 479.55,346.72 L 478.01,350.28 L 476.44,353.88 L 473.02,361.22 L 472.19,362.98 L 470.61,366.21 L 469.85,367.75 L 468.50,370.35 L 468.19,370.95 L 467.62,371.98 L 467.35,372.47 L 466.88,373.26 L 466.66,373.62 L 466.31,374.13 L 465.93,374.54 L 465.82,374.61 L 465.43,374.48 L 465.21,374.37 L 464.64,373.93 L 464.05,373.43 M 443.50,151.38 L 443.36,151.35 L 442.84,151.17 L 442.55,151.06 L 441.74,150.73 L 440.86,150.38 L 438.42,149.31 L 437.10,148.72 L 434.01,147.31 L 429.00,144.95 L 416.50,138.98 L 401.91,137.61 L 399.89,137.42 L 396.32,137.01 L 394.60,136.81 L 391.58,136.35 L 390.12,136.11 L 387.55,135.57 L 386.32,135.29 L 384.14,134.65 L 383.09,134.31 L 381.21,133.53 L 380.30,133.13 L 378.65,132.20 L 374.16,128.70 L 373.25,127.82 L 371.73,126.12 L 371.02,125.27 L 369.91,123.61 L 369.40,122.79 L 368.70,121.15 L 368.39,120.33 L 368.09,118.67 L 367.99,117.84 L 368.09,116.15 L 368.19,115.29 L 368.68,113.53 L 368.98,112.64 L 369.86,110.78 L 371.63,107.85 L 372.35,106.79 L 373.55,104.94 L 374.12,104.04 L 375.05,102.42 L 375.92,100.83 L 376.97,97.83 L 377.19,97.05 L 377.50,95.38 L 377.64,94.51 L 377.81,92.57 L 377.89,91.55 L 377.96,89.22 L 378.00,85.14 L 378.00,74.22 L 382.75,64.89 L 383.40,63.61 L 384.69,61.25 L 385.31,60.12 L 386.44,58.21 L 386.98,57.33 L 387.83,56.10 L 388.02,55.84 L 388.32,55.49 L 388.65,55.23 L 388.78,55.20 L 389.29,55.34 L 389.58,55.44 L 390.38,55.86 L 390.81,56.09 L 391.87,56.75 L 392.43,57.10 L 393.71,57.97 L 395.05,58.89 L 398.27,61.26 L 399.95,62.52 L 403.65,65.42 L 407.43,68.42 L 415.31,75.09 L 417.22,76.75 L 420.80,79.98 L 425.53,84.48 L 427.05,85.99 L 430.37,89.43 L 432.04,91.18 L 435.35,94.76 L 436.96,96.53 L 439.88,99.83 L 440.57,100.62 L 441.80,102.07 L 443.38,104.00 L 444.86,105.85 L 447.95,109.97 L 449.51,112.08 L 452.64,116.50 L 454.19,118.73 L 457.19,123.19 L 458.66,125.41 L 461.37,129.65 L 462.67,131.73 L 464.91,135.49 L 465.44,136.39 L 466.38,138.05 L 466.82,138.86 L 467.59,140.31 L 467.95,141.01 L 468.52,142.22 L 468.78,142.79 L 469.14,143.72 L 469.30,144.15 L 469.43,144.78 L 469.33,145.33 L 469.24,145.42 L 468.81,145.59 L 468.56,145.67 L 467.87,145.80 L 465.30,146.00 L 464.84,146.00 L 463.62,146.19 L 462.97,146.31 L 461.52,146.71 L 457.16,148.42 L 455.90,149.06 L 453.36,150.06 L 452.11,150.52 L 449.68,151.14 L 448.50,151.39 L 446.32,151.59 L 445.28,151.63 M 233.50,52.11 L 232.58,51.79 L 231.06,51.11 L 230.35,50.76 L 229.17,49.98 L 228.62,49.57 L 227.70,48.63 L 226.50,46.94 L 226.22,46.47 L 225.25,45.16 L 224.71,44.45 L 223.33,42.82 L 218.53,37.71 L 217.93,37.12 L 216.91,36.11 L 216.43,35.62 L 215.64,34.79 L 214.90,33.99 L 214.04,32.86 L 213.70,32.35 L 213.56,31.67 L 214.03,30.95 L 214.42,30.70 L 215.52,30.12 L 216.12,29.82 L 217.62,29.13 L 218.41,28.78 L 220.23,28.01 L 221.18,27.62 L 223.28,26.79 L 225.44,25.95 L 230.32,24.17 L 232.82,23.27 L 238.04,21.49 L 240.65,20.62 L 245.73,19.01 L 248.21,18.23 L 252.69,16.94 L 253.75,16.64 L 255.68,16.13 L 256.61,15.90 L 258.23,15.52 L 258.99,15.36 L 260.24,15.14 L 261.63,15.00 L 262.51,15.00 L 263.79,15.31 L 264.34,15.51 L 264.91,16.16 L 265.10,16.51 L 264.91,17.38 L 263.71,18.83 L 263.51,18.99 L 262.99,19.69 L 262.71,20.10 L 262.06,21.20 L 261.72,21.80 L 260.99,23.22 L 260.61,23.96 L 259.84,25.60 L 259.06,27.28 L 257.58,30.87 L 255.81,35.86 L 255.53,36.80 L 254.99,38.17 L 254.71,38.79 L 254.04,39.68 L 253.67,40.09 L 252.67,40.70 L 250.60,41.54 L 249.38,41.96 L 247.52,42.81 L 246.66,43.26 L 245.36,44.36 L 244.76,44.96 L 243.81,46.51 L 242.53,49.60 L 242.14,50.75 L 241.38,52.26 L 240.98,52.89 L 239.90,53.45 L 239.59,53.54 L 238.84,53.55 L 238.45,53.53 L 237.48,53.34 L 236.96,53.23 L 235.72,52.86 L 235.06,52.65 Z" fill="rgba(66,202,141,1)"/>
</g>
</svg>